<?xml version="1.0" encoding="UTF-8"?>
<svg id="Layer_2" xmlns="http://www.w3.org/2000/svg" xmlns:xlink="http://www.w3.org/1999/xlink" version="1.1" viewBox="0 0 202.25 190.85">
  <!-- Generator: Adobe Illustrator 30.3.0, SVG Export Plug-In . SVG Version: 2.1.3 Build 182)  -->
  <defs>
    <style>
      .st0, .st1, .st2, .st3 {
        fill: none;
      }

      .st4 {
        fill: #0e595a;
      }

      .st5 {
        fill: #007ab1;
      }

      .st6 {
        fill: #001721;
      }

      .st1 {
        stroke: #00202b;
      }

      .st1, .st2, .st3 {
        stroke-width: .47px;
      }

      .st7 {
        fill: #232021;
      }

      .st8 {
        fill: #e9e9e8;
      }

      .st9 {
        fill: #231f20;
      }

      .st2 {
        stroke: #232022;
      }

      .st10 {
        fill: #002632;
      }

      .st11 {
        fill: #5dabdf;
      }

      .st12 {
        fill: #00232e;
      }

      .st13 {
        fill: #47494a;
      }

      .st14 {
        clip-path: url(#clippath-17);
      }

      .st15 {
        clip-path: url(#clippath-19);
      }

      .st16 {
        clip-path: url(#clippath-11);
      }

      .st17 {
        clip-path: url(#clippath-16);
      }

      .st18 {
        clip-path: url(#clippath-18);
      }

      .st19 {
        clip-path: url(#clippath-10);
      }

      .st20 {
        clip-path: url(#clippath-15);
      }

      .st21 {
        clip-path: url(#clippath-13);
      }

      .st22 {
        clip-path: url(#clippath-14);
      }

      .st23 {
        clip-path: url(#clippath-12);
      }

      .st24 {
        clip-path: url(#clippath-50);
      }

      .st25 {
        clip-path: url(#clippath-52);
      }

      .st26 {
        clip-path: url(#clippath-53);
      }

      .st27 {
        clip-path: url(#clippath-51);
      }

      .st28 {
        clip-path: url(#clippath-31);
      }

      .st29 {
        clip-path: url(#clippath-32);
      }

      .st30 {
        clip-path: url(#clippath-33);
      }

      .st31 {
        clip-path: url(#clippath-34);
      }

      .st32 {
        clip-path: url(#clippath-35);
      }

      .st33 {
        clip-path: url(#clippath-39);
      }

      .st34 {
        clip-path: url(#clippath-30);
      }

      .st35 {
        clip-path: url(#clippath-36);
      }

      .st36 {
        clip-path: url(#clippath-37);
      }

      .st37 {
        clip-path: url(#clippath-38);
      }

      .st38 {
        clip-path: url(#clippath-27);
      }

      .st39 {
        clip-path: url(#clippath-29);
      }

      .st40 {
        clip-path: url(#clippath-26);
      }

      .st41 {
        clip-path: url(#clippath-28);
      }

      .st42 {
        clip-path: url(#clippath-20);
      }

      .st43 {
        clip-path: url(#clippath-21);
      }

      .st44 {
        clip-path: url(#clippath-22);
      }

      .st45 {
        clip-path: url(#clippath-23);
      }

      .st46 {
        clip-path: url(#clippath-24);
      }

      .st47 {
        clip-path: url(#clippath-25);
      }

      .st48 {
        clip-path: url(#clippath-41);
      }

      .st49 {
        clip-path: url(#clippath-42);
      }

      .st50 {
        clip-path: url(#clippath-43);
      }

      .st51 {
        clip-path: url(#clippath-44);
      }

      .st52 {
        clip-path: url(#clippath-45);
      }

      .st53 {
        clip-path: url(#clippath-49);
      }

      .st54 {
        clip-path: url(#clippath-40);
      }

      .st55 {
        clip-path: url(#clippath-46);
      }

      .st56 {
        clip-path: url(#clippath-47);
      }

      .st57 {
        clip-path: url(#clippath-48);
      }

      .st58 {
        fill: #474a4b;
      }

      .st59 {
        clip-path: url(#clippath-1);
      }

      .st60 {
        clip-path: url(#clippath-3);
      }

      .st61 {
        clip-path: url(#clippath-4);
      }

      .st62 {
        clip-path: url(#clippath-2);
      }

      .st63 {
        clip-path: url(#clippath-7);
      }

      .st64 {
        clip-path: url(#clippath-6);
      }

      .st65 {
        clip-path: url(#clippath-9);
      }

      .st66 {
        clip-path: url(#clippath-8);
      }

      .st67 {
        clip-path: url(#clippath-5);
      }

      .st68 {
        fill: #0e5f8b;
      }

      .st3 {
        stroke: #000614;
      }

      .st69 {
        fill: #a9acab;
      }

      .st70 {
        opacity: .9;
      }

      .st71 {
        opacity: .85;
      }

      .st72 {
        opacity: .8;
      }

      .st73 {
        opacity: .75;
      }

      .st74 {
        opacity: .7;
      }

      .st75 {
        opacity: .95;
      }

      .st76 {
        opacity: .45;
      }

      .st77 {
        opacity: .4;
      }

      .st78 {
        opacity: .35;
      }

      .st79 {
        opacity: .65;
      }

      .st80 {
        opacity: .6;
      }

      .st81 {
        opacity: .55;
      }

      .st82 {
        opacity: .5;
      }

      .st83 {
        opacity: .2;
      }

      .st84 {
        opacity: .3;
      }

      .st85 {
        opacity: .25;
      }

      .st86 {
        opacity: .1;
      }

      .st87 {
        opacity: .15;
      }

      .st88 {
        opacity: .05;
      }

      .st89 {
        fill: #27aae1;
      }

      .st90 {
        fill: #002133;
      }

      .st91 {
        fill: #cdcfce;
      }

      .st92 {
        fill: #003341;
      }

      .st93 {
        fill: #252829;
      }

      .st94 {
        clip-path: url(#clippath);
      }

      .st95 {
        fill: #00323f;
      }

      .st96 {
        fill: #001e2a;
      }
    </style>
    <clipPath id="clippath">
      <rect class="st0" x="28.34" y="17.48" width="97.39" height="129.44"/>
    </clipPath>
    <clipPath id="clippath-1">
      <rect class="st0" x="28.34" y="17.48" width="97.39" height="129.44"/>
    </clipPath>
    <clipPath id="clippath-2">
      <rect class="st0" x="28.34" y="17.48" width="97.39" height="129.44"/>
    </clipPath>
    <clipPath id="clippath-3">
      <rect class="st0" x="28.34" y="17.48" width="97.39" height="129.44"/>
    </clipPath>
    <clipPath id="clippath-4">
      <rect class="st0" x="25.28" y="54.17" width="69.91" height="110.78"/>
    </clipPath>
    <clipPath id="clippath-5">
      <rect class="st0" x="25.28" y="54.17" width="69.91" height="110.78"/>
    </clipPath>
    <clipPath id="clippath-6">
      <rect class="st0" x="23.4" y="81.3" width="112.64" height="59.75"/>
    </clipPath>
    <clipPath id="clippath-7">
      <rect class="st0" x="23.4" y="81.3" width="112.64" height="59.75"/>
    </clipPath>
    <clipPath id="clippath-8">
      <rect class="st0" x="107.68" y="134.8" width="71.17" height="4.75"/>
    </clipPath>
    <clipPath id="clippath-9">
      <rect class="st0" x="107.68" y="134.8" width="71.17" height="4.75"/>
    </clipPath>
    <clipPath id="clippath-10">
      <rect class="st0" x="107.68" y="140.97" width="44.67" height="4.76"/>
    </clipPath>
    <clipPath id="clippath-11">
      <rect class="st0" x="107.68" y="140.97" width="44.66" height="4.76"/>
    </clipPath>
    <clipPath id="clippath-12">
      <rect class="st0" x="107.68" y="147.14" width="57.91" height="4.75"/>
    </clipPath>
    <clipPath id="clippath-13">
      <rect class="st0" x="107.68" y="147.14" width="57.91" height="4.75"/>
    </clipPath>
    <clipPath id="clippath-14">
      <rect class="st0" x="107.68" y="153.3" width="51.28" height="4.76"/>
    </clipPath>
    <clipPath id="clippath-15">
      <rect class="st0" x="107.68" y="153.3" width="51.28" height="4.76"/>
    </clipPath>
    <clipPath id="clippath-16">
      <rect class="st0" x="107.68" y="159.47" width="64.54" height="4.75"/>
    </clipPath>
    <clipPath id="clippath-17">
      <rect class="st0" x="107.68" y="159.47" width="64.54" height="4.76"/>
    </clipPath>
    <clipPath id="clippath-18">
      <rect class="st0" x="107.68" y="165.64" width="31.39" height="4.76"/>
    </clipPath>
    <clipPath id="clippath-19">
      <rect class="st0" x="107.68" y="165.64" width="31.39" height="4.76"/>
    </clipPath>
    <clipPath id="clippath-20">
      <rect class="st0" x="107.68" y="54.04" width="11.5" height="4.75"/>
    </clipPath>
    <clipPath id="clippath-21">
      <rect class="st0" x="107.68" y="54.04" width="11.5" height="4.75"/>
    </clipPath>
    <clipPath id="clippath-22">
      <rect class="st0" x="107.68" y="128.05" width="51.28" height="4.75"/>
    </clipPath>
    <clipPath id="clippath-23">
      <rect class="st0" x="107.68" y="128.04" width="51.28" height="4.76"/>
    </clipPath>
    <clipPath id="clippath-24">
      <rect class="st0" x="107.68" y="121.88" width="44.67" height="4.76"/>
    </clipPath>
    <clipPath id="clippath-25">
      <rect class="st0" x="107.68" y="121.88" width="44.66" height="4.76"/>
    </clipPath>
    <clipPath id="clippath-26">
      <rect class="st0" x="107.68" y="115.71" width="57.91" height="4.76"/>
    </clipPath>
    <clipPath id="clippath-27">
      <rect class="st0" x="107.68" y="115.71" width="57.91" height="4.76"/>
    </clipPath>
    <clipPath id="clippath-28">
      <rect class="st0" x="107.68" y="109.55" width="51.28" height="4.76"/>
    </clipPath>
    <clipPath id="clippath-29">
      <rect class="st0" x="107.68" y="109.55" width="51.28" height="4.76"/>
    </clipPath>
    <clipPath id="clippath-30">
      <rect class="st0" x="107.68" y="103.38" width="64.54" height="4.76"/>
    </clipPath>
    <clipPath id="clippath-31">
      <rect class="st0" x="107.68" y="103.38" width="64.54" height="4.75"/>
    </clipPath>
    <clipPath id="clippath-32">
      <rect class="st0" x="107.68" y="97.21" width="31.39" height="4.75"/>
    </clipPath>
    <clipPath id="clippath-33">
      <rect class="st0" x="107.68" y="97.21" width="31.39" height="4.76"/>
    </clipPath>
    <clipPath id="clippath-34">
      <rect class="st0" x="107.68" y="91.05" width="44.67" height="4.75"/>
    </clipPath>
    <clipPath id="clippath-35">
      <rect class="st0" x="107.68" y="91.04" width="44.66" height="4.76"/>
    </clipPath>
    <clipPath id="clippath-36">
      <rect class="st0" x="107.68" y="84.88" width="57.91" height="4.76"/>
    </clipPath>
    <clipPath id="clippath-37">
      <rect class="st0" x="107.68" y="84.88" width="57.91" height="4.76"/>
    </clipPath>
    <clipPath id="clippath-38">
      <rect class="st0" x="107.68" y="78.71" width="57.91" height="4.76"/>
    </clipPath>
    <clipPath id="clippath-39">
      <rect class="st0" x="107.68" y="78.71" width="57.91" height="4.76"/>
    </clipPath>
    <clipPath id="clippath-40">
      <rect class="st0" x="107.68" y="72.55" width="38.02" height="4.76"/>
    </clipPath>
    <clipPath id="clippath-41">
      <rect class="st0" x="107.68" y="72.55" width="38.02" height="4.76"/>
    </clipPath>
    <clipPath id="clippath-42">
      <rect class="st0" x="107.68" y="66.38" width="57.91" height="4.76"/>
    </clipPath>
    <clipPath id="clippath-43">
      <rect class="st0" x="107.68" y="66.38" width="57.91" height="4.76"/>
    </clipPath>
    <clipPath id="clippath-44">
      <rect class="st0" x="107.68" y="60.21" width="44.76" height="4.76"/>
    </clipPath>
    <clipPath id="clippath-45">
      <rect class="st0" x="107.68" y="60.21" width="44.75" height="4.76"/>
    </clipPath>
    <clipPath id="clippath-46">
      <rect class="st0" x="95.66" y="67.55" width="72.47" height="112.11"/>
    </clipPath>
    <clipPath id="clippath-47">
      <rect class="st0" x="95.66" y="67.55" width="72.47" height="112.11"/>
    </clipPath>
    <clipPath id="clippath-48">
      <rect class="st0" x="96.75" y="50.44" width="10.69" height="9.55"/>
    </clipPath>
    <clipPath id="clippath-49">
      <rect class="st0" x="96.75" y="50.44" width="10.69" height="9.55"/>
    </clipPath>
    <clipPath id="clippath-50">
      <rect class="st0" x="71.36" y="29.96" width="23.26" height="15.3"/>
    </clipPath>
    <clipPath id="clippath-51">
      <rect class="st0" x="71.35" y="29.96" width="23.26" height="15.3"/>
    </clipPath>
    <clipPath id="clippath-52">
      <rect class="st0" x="78.88" y="13.36" width="53.31" height="39.17"/>
    </clipPath>
    <clipPath id="clippath-53">
      <rect class="st0" x="78.88" y="13.36" width="53.31" height="39.17"/>
    </clipPath>
  </defs>
  <g class="st73">
    <g class="st94">
      <g class="st59">
        <g class="st72">
          <g class="st62">
            <g class="st60">
              <path class="st9" d="M125.74,146.5c-1.33-.57-3.41-1.13-5.65-2.14-2.26-.96-4.72-2.26-7.06-3.77-4.68-3.02-8.86-6.87-11.14-9.43-1.83-1.89-3.13-3.41-4.04-4.61-.73-1.03,1.07,1.24,4.04,4.61,1.41,1.41,3.1,3.08,5.27,4.86-2.34-2.71-4.3-5.45-5.56-7.51-1.22-1.2-2.42-2.45-3.59-3.78-5.18-5.76-9.88-11.61-14.09-18.03-1.52-2.33-5-7.29-6.19-9.73,6.2,9.36,12.84,18.47,20.43,26.69-.18-.24-.36-.49-.53-.74-3.84-4.46-7.39-9.16-10.76-13.99-.61-.79-1.17-1.63-1.73-2.51l1.73,2.51c1.58,2.08,3.3,3.96,5.14,6.11,1.09,1.37,2.17,3.08,3.31,4.41.89,1.12,1.56,2.29,2.31,3.46l1.74,1.98c.2.16.42.33.62.52,0-.01-.01-.03-.01-.04-.25-1.31-3.81-6.24-7.22-11.48-3.46-5.2-6.86-10.65-8.05-12.04-1.85-2.25-4.41-3.71-6.36-6.34-.66-.87-.89-1.82-1.59-2.36-.2.04-.55-.23-.91-.5-1.29-1.76-1.88-3.98-3.27-5.08-.85-.86.02-5.28-.59-5.18-2.26.33-.62.09-1.91-2.36-.14-.31-1.43-.79-1.7-1.41-.73-2.2-1.68-2.41-3.22-4.52-2.54-2.99-1.82-4.39-4.69-6.71-.34-.28-3.73-4.56-3.73-4.56-1.89-3.77-4.06-5.56-4.33-9.16-2.93-2.73-3.95-7.92-6.01-11.41-2.06-3.49-1.89-5.47-2.65-9.03-.32-.97-.74-1.6-.75-2.26,0-.65-1.36-1.58-1.67-2.55l.62-.02c-.1-.32-.31-.97-.42-1.29-.1-.33.11-.33.31-.34.42-.01.83-.03.83-.68-.32-1.4-.71-2.8-1.18-4.19-.88-1.18-1.78-2.33-2.69-3.46-.27.04-.55.06-.82-.03l-.91-.96c-.62.01-1.15.34-1.56.35-1.47.68-3.62-.28-4.79.7-.32.34.58,2.64.36,3.96-.11.33-.83.01-1.45.02.61,1.31.09,1.65-.64,1.33.1.33.2.66.2.66-.21,0-.83.01-.83.01.92,3.63,1.46,7.93,3.69,10.84.42.65,1.37,1.61,2.01,2.25.32.32.44,1.3.55,1.63.73.3,1.25-.05,1.87-.08.66,2.62,2.39,8.16,4.13,7.07.89,1.93,1.93,1.87,3.04,3.79,1.5,2.52,3.35,5.74,5.17,8.92,1.07,1.69,1.97,3.39,2.92,5.09.36.63.71,1.24,1.05,1.82,3.64,6.29,6.54,11.91,9.67,17.37,3.13,5.45,6.49,10.74,11.15,16.18,9.37,10.96,18.28,22.98,27.01,32.1,4.36,4.55,8.69,8.38,12.75,10.99,2,1.34,3.97,2.3,5.64,3.06.87.33,1.65.64,2.35.87.72.21,1.34.38,1.86.5.86-.11,1.72-.27,2.55-.42"/>
            </g>
          </g>
        </g>
      </g>
    </g>
  </g>
  <g class="st71">
    <g class="st61">
      <g class="st67">
        <path class="st9" d="M91.89,64.7l-.34,1.26c.12-.19.27-.38.48-.56.17-.25,0-.45-.14-.69"/>
        <polygon class="st9" points="91.22 67.11 91.15 67.33 91.18 67.54 91.22 67.11"/>
        <path class="st9" d="M90.85,69.36c.16-.37.24-.75.27-1.13-.15.3-.26.66-.27,1.13"/>
        <path class="st9" d="M91.56,67.67c-.17.1-.33.13-.38-.12h0s-.05.69-.05.69c.12-.22.27-.41.43-.56"/>
        <path class="st9" d="M91.56,67.67c.17-.1.34-.27.43-.33-.15.09-.3.2-.43.33"/>
        <path class="st9" d="M94.63,69.1c.04.26-.85-.04-.78.46-.04,1.13.09,2.16-.21,3.15.06.52-1.16.9-1.11,1.41-.08,1.12.15,4.22.66,2.63.7-2.42.96-4.07,1.43-6.29.14-1.88.14-3.7.2-5.6.07-.52.23-.98.39-1.46l-.83,1.9c-.46.87.45,2.28.26,3.8"/>
        <path class="st9" d="M93.72,55.29l.29.69c-.73.98-.55,2.03-.41,3.13l.52-.42c.01-.62-.24-.71-.51-.19.7-1.17.87-2.37.8-3.59-.26.07-.55.05-.69.38"/>
        <path class="st9" d="M94.35,54.2l.07.71s.05-.02.08-.02l-.13-.71-.02.03Z"/>
        <path class="st9" d="M90.22,74.26c-.95,2.91-2.04,5.58-3.21,8.14.09.27.22.49,0,.72-.24.14-.42.3-.57.48l-.54,1.11-.11.42h0c0,.27.17.26.35.19.15-.1.32-.19.48-.26-.1.04-.31.18-.48.26-.19.13-.36.29-.51.5-.1.37-.23.74-.45,1.08.09-.46.24-.81.45-1.08l.16-.69v-.22c-.41.84-.84,1.67-1.27,2.5-.07.2-.14.4-.18.56-.17.67-.35,1.33-.94,1.51l-.24.44.12-.05c-.06.05-.11.1-.16.13l-1.04,1.85c-.04.49-.06,1.01-.15,1.49l-.64.21c.12.28.14.59.06.92.42-.21.86-.38,1.18-.59.64-.22-.37-1.38.68-1.48-1.05.11-.04,1.27-.68,1.48-.32.2-.76.37-1.18.59-.15.67-.7,1.37-1.44,1.77.05-.95.73-1.42,1.44-1.77.08-.32.06-.64-.06-.92l.64-.21c.09-.48.1-1.01.15-1.49l-2.12,3.64c-4.79,7.83-9.05,15.14-14.67,22.82-3.07,4.13-6.25,7.95-9.57,11.49-3.3,3.54-6.09,7.18-9.11,10.65-3.01,3.46-6.26,6.77-10.4,9.39-1.56,1.03-3.43,2.81-5.26,4.55-1.82,1.75-3.61,3.45-4.86,4.48-1.23,1.94-.9,3.35-.17,4.36.73,1,1.9,1.5,2.06,1.52,2.23.53,3.6-.05,5.09-1.03,1.5-1,3.13-2.4,6.09-3.87-1.94,1.07-1.75.12-.53-1.23,1.22-1.35,3.41-3.15,5.64-3.82,3.3-.9,5.81-3.46,8.07-6.39,2.27-2.93,4.29-6.24,6.84-8.79,1.28-1.28,2.29-2.89,3.62-4.56,7.58-8.21,12.04-17.66,18.12-27.58,1.54-2.69,2.09-5.5,2.89-8.01.75-1.75,2.09-3.34,2.78-4.73,1.08-2.18,1.68-4.23,2.14-6.22-.78,2.11-1.25,3.7-2.24,6-.69,1.52-.56-1.57-.33-2.67.01-.51,1.28-.73,1.29-1.25.44-.93.45-1.96.66-3.07,0-.52.84-.08.84-.34.42-1.46-.24-3,.37-3.77l1.17-1.7c.2-.36.39-.71.51-1.13l.08-.85c-.35.1-.71.04-1.06-.02.19-.35.59-.79.77-1.14-.19.35-.58.79-.77,1.14.36.06.71.12,1.06.02.2-2.04.5-4.34.76-6.46h-.09c-.29,1.2-.76,2.3-1.73,3.29.38-.44.61-.29.45.32l-.61.29c.13-1.11.23-2.21,1.21-2.97l-.08-.76c.23-.29.51-.18.77-.17.06-.23.11-.47.15-.71-.6.35-1.68,1.66-1.68,1.66"/>
        <path class="st9" d="M85.6,85.82c.04-.16.1-.36.17-.56l-1.08,2.09c.59-.19.76-.86.92-1.53"/>
      </g>
    </g>
  </g>
  <g class="st71">
    <g class="st64">
      <g class="st63">
        <path class="st93" d="M134.97,131.58c.26.23.35.29.5.83.31.85.56,1.92.57,3.02.01,1.09-.23,2.23-.87,3.03-.65.81-1.59,1.35-2.8,1.75-1.16.41-2.56.74-4.41.85-.13,0-.7-.03-.93-.15-2.21-1.87-4.9-3.74-7.59-5.53-2.72-1.79-5.53-3.54-8.37-5.25-12.33-7.37-25.18-14.18-38.13-20.66-3.34-1.67-6.7-3.31-10.07-4.92,0,0-16.06-9.16-27.42-15.37-4.86-2.5-8.02-4.07-9.82-4.95-.91-.44-1.46-.7-1.86-.93-.4-.21-.47-.5-.28-.87.29-.38,1.13-.79,2.05-.95.95-.18,2.12-.22,3.43-.15,2.61.16,5.83.77,9.24,1.66-.62-.4,7.42,2.04,15.38,5.01,7.98,2.93,15.98,6.23,15.98,6.23,2.94,1.42,5.87,2.85,8.8,4.3,13.19,6.59,26.21,13.47,38.99,21.09,2.95,1.77,5.89,3.6,8.82,5.52,2.93,1.96,5.82,3.93,8.78,6.42"/>
      </g>
    </g>
  </g>
  <path class="st5" d="M86.78,51.66c.03.43.07,9.77.03,10.85h19.4c-.01-1.11,0-10.19,0-10.77l-19.43-.08Z"/>
  <g class="st74">
    <g class="st66">
      <g class="st65">
        <path class="st89" d="M148.72,134.8h2.37c.69,0,1.25.23,1.25.52v3.71c0,.29-.56.52-1.25.52h-2.37c-.69,0-1.25-.24-1.25-.52v-3.71c0-.29.56-.52,1.25-.52M140.83,135.33v3.71c0,.29.56.52,1.25.52h2.36c.69,0,1.25-.24,1.25-.52v-3.71c0-.29-.56-.52-1.25-.52h-2.36c-.69,0-1.25.23-1.25.52M134.2,135.33v3.71c0,.29.56.52,1.25.52h2.36c.69,0,1.25-.24,1.25-.52v-3.71c0-.29-.56-.52-1.25-.52h-2.36c-.69,0-1.25.23-1.25.52M127.57,135.33v3.71c0,.29.56.52,1.25.52h2.36c.69,0,1.25-.24,1.25-.52v-3.71c0-.29-.56-.52-1.25-.52h-2.36c-.69,0-1.25.23-1.25.52M120.94,135.33v3.71c0,.29.56.52,1.25.52h2.36c.69,0,1.25-.24,1.25-.52v-3.71c0-.29-.56-.52-1.25-.52h-2.36c-.69,0-1.25.23-1.25.52M114.31,135.33v3.71c0,.29.56.52,1.25.52h2.36c.69,0,1.25-.24,1.25-.52v-3.71c0-.29-.56-.52-1.25-.52h-2.36c-.69,0-1.25.23-1.25.52M107.68,135.33v3.71c0,.29.56.52,1.25.52h2.36c.69,0,1.25-.24,1.25-.52v-3.71c0-.29-.56-.52-1.25-.52h-2.36c-.69,0-1.25.23-1.25.52M160.73,135.33v3.71c0,.29.56.52,1.25.52h2.36c.69,0,1.25-.24,1.25-.52v-3.71c0-.29-.56-.52-1.25-.52h-2.36c-.69,0-1.25.23-1.25.52M154.09,135.33v3.71c0,.29.56.52,1.25.52h2.36c.69,0,1.25-.24,1.25-.52v-3.71c0-.29-.56-.52-1.25-.52h-2.36c-.69,0-1.25.23-1.25.52M173.99,135.33v3.71c0,.29.56.52,1.25.52h2.36c.69,0,1.25-.24,1.25-.52v-3.71c0-.29-.56-.52-1.25-.52h-2.36c-.69,0-1.25.23-1.25.52M167.35,135.33v3.71c0,.29.56.52,1.25.52h2.36c.69,0,1.25-.24,1.25-.52v-3.71c0-.29-.56-.52-1.25-.52h-2.36c-.69,0-1.25.23-1.25.52"/>
      </g>
    </g>
  </g>
  <g class="st73">
    <g class="st19">
      <g class="st16">
        <path class="st89" d="M122.19,140.97h2.36c.69,0,1.25.24,1.25.52v3.71c0,.29-.56.52-1.25.52h-2.36c-.69,0-1.25-.23-1.25-.52v-3.71c0-.29.56-.52,1.25-.52M114.31,141.49v3.71c0,.29.56.52,1.25.52h2.36c.69,0,1.25-.23,1.25-.52v-3.71c0-.29-.56-.52-1.25-.52h-2.36c-.69,0-1.25.24-1.25.52M107.68,141.49v3.71c0,.29.56.52,1.25.52h2.36c.69,0,1.25-.23,1.25-.52v-3.71c0-.29-.56-.52-1.25-.52h-2.36c-.69,0-1.25.24-1.25.52M134.22,141.49v3.71c0,.29.56.52,1.25.52h2.36c.69,0,1.25-.23,1.25-.52v-3.71c0-.29-.56-.52-1.25-.52h-2.36c-.69,0-1.25.23-1.25.52M127.59,141.49v3.71c0,.29.56.52,1.25.52h2.36c.69,0,1.25-.23,1.25-.52v-3.71c0-.29-.56-.52-1.25-.52h-2.36c-.69,0-1.25.23-1.25.52M147.48,141.49v3.71c0,.29.56.52,1.25.52h2.36c.69,0,1.25-.23,1.25-.52v-3.71c0-.29-.56-.52-1.25-.52h-2.36c-.69,0-1.25.23-1.25.52M140.85,141.49v3.71c0,.29.56.52,1.25.52h2.36c.69,0,1.25-.23,1.25-.52v-3.71c0-.29-.56-.52-1.25-.52h-2.36c-.69,0-1.25.23-1.25.52"/>
      </g>
    </g>
  </g>
  <g class="st72">
    <g class="st23">
      <g class="st21">
        <path class="st89" d="M135.46,147.14h2.36c.69,0,1.25.23,1.25.52v3.71c0,.29-.56.52-1.25.52h-2.36c-.69,0-1.25-.23-1.25-.52v-3.71c0-.29.56-.52,1.25-.52M127.57,147.66v3.71c0,.29.56.52,1.25.52h2.36c.69,0,1.25-.23,1.25-.52v-3.71c0-.29-.56-.52-1.25-.52h-2.36c-.69,0-1.25.23-1.25.52M120.94,147.66v3.71c0,.29.56.52,1.25.52h2.36c.69,0,1.25-.23,1.25-.52v-3.71c0-.29-.56-.52-1.25-.52h-2.36c-.69,0-1.25.23-1.25.52M114.31,147.66v3.71c0,.29.56.52,1.25.52h2.36c.69,0,1.25-.23,1.25-.52v-3.71c0-.29-.56-.52-1.25-.52h-2.36c-.69,0-1.25.23-1.25.52M107.68,147.66v3.71c0,.29.56.52,1.25.52h2.36c.69,0,1.25-.23,1.25-.52v-3.71c0-.29-.56-.52-1.25-.52h-2.36c-.69,0-1.25.23-1.25.52M147.47,147.66v3.71c0,.29.56.52,1.25.52h2.36c.69,0,1.25-.23,1.25-.52v-3.71c0-.29-.56-.52-1.25-.52h-2.36c-.69,0-1.25.23-1.25.52M140.83,147.66v3.71c0,.29.56.52,1.25.52h2.36c.69,0,1.25-.23,1.25-.52v-3.71c0-.29-.56-.52-1.25-.52h-2.36c-.69,0-1.25.23-1.25.52M160.73,147.66v3.71c0,.29.56.52,1.25.52h2.36c.69,0,1.25-.23,1.25-.52v-3.71c0-.29-.56-.52-1.25-.52h-2.36c-.69,0-1.25.23-1.25.52M154.09,147.66v3.71c0,.29.56.52,1.25.52h2.36c.69,0,1.25-.23,1.25-.52v-3.71c0-.29-.56-.52-1.25-.52h-2.36c-.69,0-1.25.23-1.25.52"/>
      </g>
    </g>
  </g>
  <g class="st71">
    <g class="st22">
      <g class="st20">
        <path class="st89" d="M128.82,153.3h2.36c.69,0,1.25.23,1.25.52v3.71c0,.29-.56.52-1.25.52h-2.36c-.69,0-1.25-.23-1.25-.52v-3.71c0-.29.56-.52,1.25-.52M120.94,153.83v3.71c0,.29.56.52,1.25.52h2.37c.69,0,1.25-.23,1.25-.52v-3.71c0-.29-.56-.52-1.25-.52h-2.37c-.69,0-1.25.23-1.25.52M114.31,153.83v3.71c0,.29.56.52,1.25.52h2.36c.69,0,1.25-.23,1.25-.52v-3.71c0-.29-.56-.52-1.25-.52h-2.36c-.69,0-1.25.23-1.25.52M107.68,153.83v3.71c0,.29.56.52,1.25.52h2.36c.69,0,1.25-.23,1.25-.52v-3.71c0-.29-.56-.52-1.25-.52h-2.36c-.69,0-1.25.23-1.25.52M140.84,153.83v3.71c0,.29.56.52,1.25.52h2.36c.69,0,1.25-.23,1.25-.52v-3.71c0-.29-.56-.52-1.25-.52h-2.36c-.69,0-1.25.23-1.25.52M134.21,153.83v3.71c0,.29.56.52,1.25.52h2.36c.69,0,1.25-.23,1.25-.52v-3.71c0-.29-.56-.52-1.25-.52h-2.36c-.69,0-1.25.23-1.25.52M154.1,153.83v3.71c0,.29.56.52,1.25.52h2.36c.69,0,1.25-.23,1.25-.52v-3.71c0-.29-.56-.52-1.25-.52h-2.36c-.69,0-1.25.23-1.25.52M147.47,153.83v3.71c0,.29.56.52,1.25.52h2.36c.69,0,1.25-.23,1.25-.52v-3.71c0-.29-.56-.52-1.25-.52h-2.36c-.69,0-1.25.23-1.25.52"/>
      </g>
    </g>
  </g>
  <g class="st70">
    <g class="st17">
      <g class="st14">
        <path class="st89" d="M142.08,159.47h2.36c.69,0,1.25.24,1.25.52v3.71c0,.29-.56.52-1.25.52h-2.36c-.69,0-1.25-.23-1.25-.52v-3.71c0-.29.56-.52,1.25-.52M134.21,159.99v3.71c0,.29.56.52,1.25.52h2.36c.69,0,1.25-.23,1.25-.52v-3.71c0-.29-.56-.52-1.25-.52h-2.36c-.69,0-1.25.24-1.25.52M127.57,159.99v3.71c0,.29.56.52,1.25.52h2.36c.69,0,1.25-.23,1.25-.52v-3.71c0-.29-.56-.52-1.25-.52h-2.36c-.69,0-1.25.24-1.25.52M120.94,159.99v3.71c0,.29.56.52,1.25.52h2.36c.69,0,1.25-.23,1.25-.52v-3.71c0-.29-.56-.52-1.25-.52h-2.36c-.69,0-1.25.24-1.25.52M114.31,159.99v3.71c0,.29.56.52,1.25.52h2.36c.69,0,1.25-.23,1.25-.52v-3.71c0-.29-.56-.52-1.25-.52h-2.36c-.69,0-1.25.24-1.25.52M107.68,159.99v3.71c0,.29.56.52,1.25.52h2.36c.69,0,1.25-.23,1.25-.52v-3.71c0-.29-.56-.52-1.25-.52h-2.36c-.69,0-1.25.24-1.25.52M154.1,159.99v3.71c0,.29.56.52,1.25.52h2.36c.69,0,1.25-.23,1.25-.52v-3.71c0-.29-.56-.52-1.25-.52h-2.36c-.69,0-1.25.23-1.25.52M147.47,159.99v3.71c0,.29.56.52,1.25.52h2.36c.69,0,1.25-.23,1.25-.52v-3.71c0-.29-.56-.52-1.25-.52h-2.36c-.69,0-1.25.23-1.25.52M167.36,159.99v3.71c0,.29.56.52,1.25.52h2.36c.69,0,1.25-.23,1.25-.52v-3.71c0-.29-.56-.52-1.25-.52h-2.36c-.69,0-1.25.23-1.25.52M160.73,159.99v3.71c0,.29.56.52,1.25.52h2.36c.69,0,1.25-.23,1.25-.52v-3.71c0-.29-.56-.52-1.25-.52h-2.36c-.69,0-1.25.23-1.25.52"/>
      </g>
    </g>
  </g>
  <g class="st75">
    <g class="st18">
      <g class="st15">
        <path class="st89" d="M108.93,165.64h2.36c.69,0,1.25.23,1.25.52v3.71c0,.29-.56.52-1.25.52h-2.36c-.69,0-1.25-.24-1.25-.52v-3.71c0-.29.56-.52,1.25-.52M120.95,166.16v3.71c0,.29.56.52,1.25.52h2.36c.69,0,1.25-.23,1.25-.52v-3.71c0-.29-.56-.52-1.25-.52h-2.36c-.69,0-1.25.23-1.25.52M114.31,166.16v3.71c0,.29.56.52,1.25.52h2.36c.69,0,1.25-.23,1.25-.52v-3.71c0-.29-.56-.52-1.25-.52h-2.36c-.69,0-1.25.23-1.25.52M134.21,166.16v3.71c0,.29.56.52,1.25.52h2.36c.69,0,1.25-.23,1.25-.52v-3.71c0-.29-.56-.52-1.25-.52h-2.36c-.69,0-1.25.23-1.25.52M127.57,166.16v3.71c0,.29.56.52,1.25.52h2.36c.69,0,1.25-.23,1.25-.52v-3.71c0-.29-.56-.52-1.25-.52h-2.36c-.69,0-1.25.23-1.25.52"/>
      </g>
    </g>
  </g>
  <path class="st89" d="M122.19,171.8h2.36c.69,0,1.25.23,1.25.52v3.71c0,.29-.56.52-1.25.52h-2.36c-.69,0-1.25-.23-1.25-.52v-3.71c0-.29.56-.52,1.25-.52M114.31,172.33v3.71c0,.29.56.52,1.25.52h2.36c.69,0,1.25-.23,1.25-.52v-3.71c0-.29-.56-.52-1.25-.52h-2.36c-.69,0-1.25.23-1.25.52M107.68,172.33v3.71c0,.29.56.52,1.25.52h2.36c.69,0,1.25-.23,1.25-.52v-3.71c0-.29-.56-.52-1.25-.52h-2.36c-.69,0-1.25.23-1.25.52M134.22,172.33v3.71c0,.29.56.52,1.25.52h2.36c.69,0,1.25-.23,1.25-.52v-3.71c0-.29-.56-.52-1.25-.52h-2.36c-.69,0-1.25.23-1.25.52M127.59,172.33v3.71c0,.29.56.52,1.25.52h2.36c.69,0,1.25-.23,1.25-.52v-3.71c0-.29-.56-.52-1.25-.52h-2.36c-.69,0-1.25.23-1.25.52M147.48,172.33v3.71c0,.29.56.52,1.25.52h2.36c.69,0,1.25-.23,1.25-.52v-3.71c0-.29-.56-.52-1.25-.52h-2.36c-.69,0-1.25.23-1.25.52M140.85,172.33v3.71c0,.29.56.52,1.25.52h2.36c.69,0,1.25-.23,1.25-.52v-3.71c0-.29-.56-.52-1.25-.52h-2.36c-.69,0-1.25.23-1.25.52"/>
  <g class="st88">
    <g class="st42">
      <g class="st43">
        <path class="st89" d="M115.56,58.8h2.36c.69,0,1.25-.23,1.25-.52v-3.7c0-.29-.56-.52-1.25-.52h-2.36c-.69,0-1.25.23-1.25.52v3.7c0,.29.56.52,1.25.52M108.93,58.8h2.36c.69,0,1.25-.23,1.25-.52v-3.7c0-.29-.56-.52-1.25-.52h-2.36c-.69,0-1.25.23-1.25.52v3.7c0,.29.56.52,1.25.52"/>
      </g>
    </g>
  </g>
  <g class="st79">
    <g class="st44">
      <g class="st45">
        <path class="st89" d="M147.47,132.28v-3.71c0-.29.56-.52,1.25-.52h2.36c.69,0,1.25.24,1.25.52v3.71c0,.29-.56.52-1.25.52h-2.36c-.69,0-1.25-.23-1.25-.52M142.08,132.8h2.36c.69,0,1.25-.23,1.25-.52v-3.71c0-.29-.56-.52-1.25-.52h-2.36c-.69,0-1.25.24-1.25.52v3.71c0,.29.56.52,1.25.52M135.46,132.8h2.36c.69,0,1.25-.23,1.25-.52v-3.71c0-.29-.56-.52-1.25-.52h-2.36c-.69,0-1.25.24-1.25.52v3.71c0,.29.56.52,1.25.52M128.82,132.8h2.36c.69,0,1.25-.23,1.25-.52v-3.71c0-.29-.56-.52-1.25-.52h-2.36c-.69,0-1.25.24-1.25.52v3.71c0,.29.56.52,1.25.52M122.19,132.8h2.37c.69,0,1.25-.23,1.25-.52v-3.71c0-.29-.56-.52-1.25-.52h-2.37c-.69,0-1.25.24-1.25.52v3.71c0,.29.56.52,1.25.52M115.56,132.8h2.36c.69,0,1.25-.23,1.25-.52v-3.71c0-.29-.56-.52-1.25-.52h-2.36c-.69,0-1.25.24-1.25.52v3.71c0,.29.56.52,1.25.52M108.93,132.8h2.36c.69,0,1.25-.23,1.25-.52v-3.71c0-.29-.56-.52-1.25-.52h-2.36c-.69,0-1.25.24-1.25.52v3.71c0,.29.56.52,1.25.52M155.34,132.8h2.36c.69,0,1.25-.23,1.25-.52v-3.71c0-.29-.56-.52-1.25-.52h-2.36c-.69,0-1.25.23-1.25.52v3.71c0,.29.56.52,1.25.52"/>
      </g>
    </g>
  </g>
  <g class="st80">
    <g class="st46">
      <g class="st47">
        <path class="st89" d="M120.94,126.11v-3.71c0-.29.56-.52,1.25-.52h2.36c.69,0,1.25.24,1.25.52v3.71c0,.29-.56.52-1.25.52h-2.36c-.69,0-1.25-.24-1.25-.52M115.56,126.63h2.36c.69,0,1.25-.24,1.25-.52v-3.71c0-.29-.56-.52-1.25-.52h-2.36c-.69,0-1.25.24-1.25.52v3.71c0,.29.56.52,1.25.52M108.93,126.63h2.36c.69,0,1.25-.24,1.25-.52v-3.71c0-.29-.56-.52-1.25-.52h-2.36c-.69,0-1.25.24-1.25.52v3.71c0,.29.56.52,1.25.52M135.47,126.63h2.36c.69,0,1.25-.23,1.25-.52v-3.71c0-.29-.56-.52-1.25-.52h-2.36c-.69,0-1.25.23-1.25.52v3.71c0,.29.56.52,1.25.52M128.84,126.63h2.36c.69,0,1.25-.23,1.25-.52v-3.71c0-.29-.56-.52-1.25-.52h-2.36c-.69,0-1.25.23-1.25.52v3.71c0,.29.56.52,1.25.52M148.73,126.63h2.36c.69,0,1.25-.23,1.25-.52v-3.71c0-.29-.56-.52-1.25-.52h-2.36c-.69,0-1.25.23-1.25.52v3.71c0,.29.56.52,1.25.52M142.1,126.63h2.36c.69,0,1.25-.23,1.25-.52v-3.71c0-.29-.56-.52-1.25-.52h-2.36c-.69,0-1.25.23-1.25.52v3.71c0,.29.56.52,1.25.52"/>
      </g>
    </g>
  </g>
  <g class="st81">
    <g class="st40">
      <g class="st38">
        <path class="st89" d="M134.21,119.94v-3.71c0-.29.56-.53,1.25-.53h2.36c.69,0,1.25.24,1.25.53v3.71c0,.29-.56.52-1.25.52h-2.36c-.69,0-1.25-.23-1.25-.52M128.82,120.47h2.36c.69,0,1.25-.23,1.25-.52v-3.71c0-.29-.56-.53-1.25-.53h-2.36c-.69,0-1.25.24-1.25.53v3.71c0,.29.56.52,1.25.52M122.19,120.47h2.37c.69,0,1.25-.23,1.25-.52v-3.71c0-.29-.56-.53-1.25-.53h-2.37c-.69,0-1.25.24-1.25.53v3.71c0,.29.56.52,1.25.52M115.56,120.47h2.36c.69,0,1.25-.23,1.25-.52v-3.71c0-.29-.56-.53-1.25-.53h-2.36c-.69,0-1.25.24-1.25.53v3.71c0,.29.56.52,1.25.52M108.93,120.47h2.36c.69,0,1.25-.23,1.25-.52v-3.71c0-.29-.56-.53-1.25-.53h-2.36c-.69,0-1.25.24-1.25.53v3.71c0,.29.56.52,1.25.52M148.72,120.47h2.36c.69,0,1.25-.23,1.25-.52v-3.71c0-.29-.56-.52-1.25-.52h-2.36c-.69,0-1.25.23-1.25.52v3.71c0,.29.56.52,1.25.52M142.08,120.47h2.36c.69,0,1.25-.23,1.25-.52v-3.71c0-.29-.56-.52-1.25-.52h-2.36c-.69,0-1.25.23-1.25.52v3.71c0,.29.56.52,1.25.52M161.98,120.47h2.36c.69,0,1.25-.23,1.25-.52v-3.71c0-.29-.56-.52-1.25-.52h-2.36c-.69,0-1.25.23-1.25.52v3.71c0,.29.56.52,1.25.52M155.34,120.47h2.36c.69,0,1.25-.23,1.25-.52v-3.71c0-.29-.56-.52-1.25-.52h-2.36c-.69,0-1.25.23-1.25.52v3.71c0,.29.56.52,1.25.52"/>
      </g>
    </g>
  </g>
  <g class="st82">
    <g class="st41">
      <g class="st39">
        <path class="st89" d="M127.57,113.78v-3.71c0-.29.56-.53,1.25-.53h2.36c.69,0,1.25.23,1.25.53v3.71c0,.29-.56.52-1.25.52h-2.36c-.69,0-1.25-.23-1.25-.52M122.19,114.3h2.36c.69,0,1.25-.23,1.25-.52v-3.71c0-.29-.56-.53-1.25-.53h-2.36c-.69,0-1.25.23-1.25.53v3.71c0,.29.56.52,1.25.52M115.56,114.3h2.36c.69,0,1.25-.23,1.25-.52v-3.71c0-.29-.56-.53-1.25-.53h-2.36c-.69,0-1.25.23-1.25.53v3.71c0,.29.56.52,1.25.52M108.93,114.3h2.36c.69,0,1.25-.23,1.25-.52v-3.71c0-.29-.56-.53-1.25-.53h-2.36c-.69,0-1.25.23-1.25.53v3.71c0,.29.56.52,1.25.52M142.09,114.3h2.36c.69,0,1.25-.23,1.25-.52v-3.7c0-.29-.56-.53-1.25-.53h-2.36c-.69,0-1.25.23-1.25.53v3.7c0,.29.56.52,1.25.52M135.46,114.3h2.36c.69,0,1.25-.23,1.25-.52v-3.7c0-.29-.56-.53-1.25-.53h-2.36c-.69,0-1.25.23-1.25.53v3.7c0,.29.56.52,1.25.52M155.35,114.3h2.36c.69,0,1.25-.23,1.25-.52v-3.7c0-.29-.56-.53-1.25-.53h-2.36c-.69,0-1.25.23-1.25.53v3.7c0,.29.56.52,1.25.52M148.72,114.3h2.36c.69,0,1.25-.23,1.25-.52v-3.7c0-.29-.56-.53-1.25-.53h-2.36c-.69,0-1.25.23-1.25.53v3.7c0,.29.56.52,1.25.52"/>
      </g>
    </g>
  </g>
  <g class="st76">
    <g class="st34">
      <g class="st28">
        <path class="st89" d="M140.83,107.61v-3.71c0-.29.56-.52,1.25-.52h2.36c.69,0,1.25.23,1.25.52v3.71c0,.29-.56.52-1.25.52h-2.36c-.69,0-1.25-.24-1.25-.52M135.46,108.13h2.36c.69,0,1.25-.24,1.25-.52v-3.71c0-.29-.56-.52-1.25-.52h-2.36c-.69,0-1.25.23-1.25.52v3.71c0,.29.56.52,1.25.52M128.82,108.13h2.36c.69,0,1.25-.24,1.25-.52v-3.71c0-.29-.56-.52-1.25-.52h-2.36c-.69,0-1.25.23-1.25.52v3.71c0,.29.56.52,1.25.52M122.19,108.13h2.36c.69,0,1.25-.24,1.25-.52v-3.71c0-.29-.56-.52-1.25-.52h-2.36c-.69,0-1.25.23-1.25.52v3.71c0,.29.56.52,1.25.52M115.56,108.13h2.36c.69,0,1.25-.24,1.25-.52v-3.71c0-.29-.56-.52-1.25-.52h-2.36c-.69,0-1.25.23-1.25.52v3.71c0,.29.56.52,1.25.52M108.93,108.13h2.36c.69,0,1.25-.24,1.25-.52v-3.71c0-.29-.56-.52-1.25-.52h-2.36c-.69,0-1.25.23-1.25.52v3.71c0,.29.56.52,1.25.52M155.35,108.13h2.36c.69,0,1.25-.23,1.25-.52v-3.71c0-.29-.56-.52-1.25-.52h-2.36c-.69,0-1.25.23-1.25.52v3.71c0,.29.56.52,1.25.52M148.72,108.13h2.36c.69,0,1.25-.23,1.25-.52v-3.71c0-.29-.56-.52-1.25-.52h-2.36c-.69,0-1.25.23-1.25.52v3.71c0,.29.56.52,1.25.52M168.61,108.13h2.36c.69,0,1.25-.23,1.25-.52v-3.71c0-.29-.56-.52-1.25-.52h-2.36c-.69,0-1.25.23-1.25.52v3.71c0,.29.56.52,1.25.52M161.98,108.13h2.36c.69,0,1.25-.23,1.25-.52v-3.71c0-.29-.56-.52-1.25-.52h-2.36c-.69,0-1.25.23-1.25.52v3.71c0,.29.56.52,1.25.52"/>
      </g>
    </g>
  </g>
  <g class="st77">
    <g class="st29">
      <g class="st30">
        <path class="st89" d="M107.68,101.44v-3.71c0-.29.56-.52,1.25-.52h2.36c.69,0,1.25.24,1.25.52v3.71c0,.29-.56.52-1.25.52h-2.36c-.69,0-1.25-.23-1.25-.52M122.2,101.97h2.36c.69,0,1.25-.23,1.25-.52v-3.71c0-.29-.56-.52-1.25-.52h-2.36c-.69,0-1.25.23-1.25.52v3.71c0,.29.56.52,1.25.52M115.56,101.97h2.36c.69,0,1.25-.23,1.25-.52v-3.71c0-.29-.56-.52-1.25-.52h-2.36c-.69,0-1.25.23-1.25.52v3.71c0,.29.56.52,1.25.52M135.46,101.97h2.36c.69,0,1.25-.23,1.25-.52v-3.71c0-.29-.56-.52-1.25-.52h-2.36c-.69,0-1.25.23-1.25.52v3.71c0,.29.56.52,1.25.52M128.82,101.97h2.36c.69,0,1.25-.23,1.25-.52v-3.71c0-.29-.56-.52-1.25-.52h-2.36c-.69,0-1.25.23-1.25.52v3.71c0,.29.56.52,1.25.52"/>
      </g>
    </g>
  </g>
  <g class="st78">
    <g class="st31">
      <g class="st32">
        <path class="st89" d="M120.94,95.28v-3.7c0-.29.56-.52,1.25-.52h2.36c.69,0,1.25.23,1.25.52v3.7c0,.29-.56.52-1.25.52h-2.36c-.69,0-1.25-.23-1.25-.52M115.56,95.8h2.36c.69,0,1.25-.23,1.25-.52v-3.7c0-.29-.56-.52-1.25-.52h-2.36c-.69,0-1.25.23-1.25.52v3.7c0,.29.56.52,1.25.52M108.93,95.8h2.36c.69,0,1.25-.23,1.25-.52v-3.7c0-.29-.56-.52-1.25-.52h-2.36c-.69,0-1.25.23-1.25.52v3.7c0,.29.56.52,1.25.52M135.47,95.8h2.36c.69,0,1.25-.23,1.25-.52v-3.7c0-.29-.56-.52-1.25-.52h-2.36c-.69,0-1.25.23-1.25.52v3.7c0,.29.56.52,1.25.52M128.84,95.8h2.36c.69,0,1.25-.23,1.25-.52v-3.7c0-.29-.56-.52-1.25-.52h-2.36c-.69,0-1.25.23-1.25.52v3.7c0,.29.56.52,1.25.52M148.73,95.8h2.36c.69,0,1.25-.23,1.25-.52v-3.7c0-.29-.56-.52-1.25-.52h-2.36c-.69,0-1.25.23-1.25.52v3.7c0,.29.56.52,1.25.52M142.1,95.8h2.36c.69,0,1.25-.23,1.25-.52v-3.7c0-.29-.56-.52-1.25-.52h-2.36c-.69,0-1.25.23-1.25.52v3.7c0,.29.56.52,1.25.52"/>
      </g>
    </g>
  </g>
  <g class="st84">
    <g class="st35">
      <g class="st36">
        <path class="st89" d="M134.21,89.11v-3.7c0-.29.56-.52,1.25-.52h2.36c.69,0,1.25.23,1.25.52v3.7c0,.29-.56.53-1.25.53h-2.36c-.69,0-1.25-.24-1.25-.53M128.82,89.63h2.36c.69,0,1.25-.24,1.25-.53v-3.7c0-.29-.56-.52-1.25-.52h-2.36c-.69,0-1.25.23-1.25.52v3.7c0,.29.56.53,1.25.53M122.19,89.63h2.37c.69,0,1.25-.24,1.25-.53v-3.7c0-.29-.56-.52-1.25-.52h-2.37c-.69,0-1.25.23-1.25.52v3.7c0,.29.56.53,1.25.53M115.56,89.63h2.36c.69,0,1.25-.24,1.25-.53v-3.7c0-.29-.56-.52-1.25-.52h-2.36c-.69,0-1.25.23-1.25.52v3.7c0,.29.56.53,1.25.53M108.93,89.63h2.36c.69,0,1.25-.24,1.25-.53v-3.7c0-.29-.56-.52-1.25-.52h-2.36c-.69,0-1.25.23-1.25.52v3.7c0,.29.56.53,1.25.53M148.72,89.63h2.36c.69,0,1.25-.23,1.25-.53v-3.7c0-.29-.56-.52-1.25-.52h-2.36c-.69,0-1.25.23-1.25.52v3.7c0,.29.56.53,1.25.53M142.08,89.63h2.36c.69,0,1.25-.23,1.25-.53v-3.7c0-.29-.56-.52-1.25-.52h-2.36c-.69,0-1.25.23-1.25.52v3.7c0,.29.56.53,1.25.53M161.98,89.63h2.36c.69,0,1.25-.23,1.25-.53v-3.7c0-.29-.56-.52-1.25-.52h-2.36c-.69,0-1.25.23-1.25.52v3.7c0,.29.56.53,1.25.53M155.34,89.63h2.36c.69,0,1.25-.23,1.25-.53v-3.7c0-.29-.56-.52-1.25-.52h-2.36c-.69,0-1.25.23-1.25.52v3.7c0,.29.56.53,1.25.53"/>
      </g>
    </g>
  </g>
  <g class="st85">
    <g class="st37">
      <g class="st33">
        <path class="st89" d="M147.47,82.94v-3.71c0-.29.56-.52,1.25-.52h2.36c.69,0,1.25.24,1.25.52v3.71c0,.29-.56.52-1.25.52h-2.36c-.69,0-1.25-.23-1.25-.52M142.08,83.47h2.36c.69,0,1.25-.23,1.25-.52v-3.71c0-.29-.56-.52-1.25-.52h-2.36c-.69,0-1.25.24-1.25.52v3.71c0,.29.56.52,1.25.52M135.46,83.47h2.36c.69,0,1.25-.23,1.25-.52v-3.71c0-.29-.56-.52-1.25-.52h-2.36c-.69,0-1.25.24-1.25.52v3.71c0,.29.56.52,1.25.52M128.82,83.47h2.36c.69,0,1.25-.23,1.25-.52v-3.71c0-.29-.56-.52-1.25-.52h-2.36c-.69,0-1.25.24-1.25.52v3.71c0,.29.56.52,1.25.52M122.19,83.47h2.37c.69,0,1.25-.23,1.25-.52v-3.71c0-.29-.56-.52-1.25-.52h-2.37c-.69,0-1.25.24-1.25.52v3.71c0,.29.56.52,1.25.52M115.56,83.47h2.36c.69,0,1.25-.23,1.25-.52v-3.71c0-.29-.56-.52-1.25-.52h-2.36c-.69,0-1.25.24-1.25.52v3.71c0,.29.56.52,1.25.52M108.93,83.47h2.36c.69,0,1.25-.23,1.25-.52v-3.71c0-.29-.56-.52-1.25-.52h-2.36c-.69,0-1.25.24-1.25.52v3.71c0,.29.56.52,1.25.52M161.98,83.47h2.36c.69,0,1.25-.23,1.25-.52v-3.71c0-.29-.56-.52-1.25-.52h-2.36c-.69,0-1.25.23-1.25.52v3.71c0,.29.56.52,1.25.52M155.34,83.47h2.36c.69,0,1.25-.23,1.25-.52v-3.71c0-.29-.56-.52-1.25-.52h-2.36c-.69,0-1.25.23-1.25.52v3.71c0,.29.56.52,1.25.52"/>
      </g>
    </g>
  </g>
  <g class="st83">
    <g class="st54">
      <g class="st48">
        <path class="st89" d="M114.31,76.78v-3.71c0-.29.56-.52,1.25-.52h2.36c.69,0,1.25.23,1.25.52v3.71c0,.29-.56.52-1.25.52h-2.36c-.69,0-1.25-.23-1.25-.52M108.93,77.3h2.36c.69,0,1.25-.23,1.25-.52v-3.71c0-.29-.56-.52-1.25-.52h-2.36c-.69,0-1.25.23-1.25.52v3.71c0,.29.56.52,1.25.52M128.82,77.3h2.36c.69,0,1.25-.23,1.25-.52v-3.71c0-.29-.56-.52-1.25-.52h-2.36c-.69,0-1.25.23-1.25.52v3.71c0,.29.56.52,1.25.52M122.19,77.3h2.36c.69,0,1.25-.23,1.25-.52v-3.71c0-.29-.56-.52-1.25-.52h-2.36c-.69,0-1.25.23-1.25.52v3.71c0,.29.56.52,1.25.52M142.08,77.3h2.36c.69,0,1.25-.23,1.25-.52v-3.71c0-.29-.56-.52-1.25-.52h-2.36c-.69,0-1.25.23-1.25.52v3.71c0,.29.56.52,1.25.52M135.45,77.3h2.36c.69,0,1.25-.23,1.25-.52v-3.71c0-.29-.56-.52-1.25-.52h-2.36c-.69,0-1.25.23-1.25.52v3.71c0,.29.56.52,1.25.52"/>
      </g>
    </g>
  </g>
  <g class="st87">
    <g class="st49">
      <g class="st50">
        <path class="st89" d="M134.21,70.61v-3.71c0-.29.56-.52,1.25-.52h2.36c.69,0,1.25.23,1.25.52v3.71c0,.29-.56.52-1.25.52h-2.36c-.69,0-1.25-.23-1.25-.52M128.82,71.13h2.36c.69,0,1.25-.23,1.25-.52v-3.71c0-.29-.56-.52-1.25-.52h-2.36c-.69,0-1.25.23-1.25.52v3.71c0,.29.56.52,1.25.52M122.19,71.13h2.37c.69,0,1.25-.23,1.25-.52v-3.71c0-.29-.56-.52-1.25-.52h-2.37c-.69,0-1.25.23-1.25.52v3.71c0,.29.56.52,1.25.52M115.56,71.13h2.36c.69,0,1.25-.23,1.25-.52v-3.71c0-.29-.56-.52-1.25-.52h-2.36c-.69,0-1.25.23-1.25.52v3.71c0,.29.56.52,1.25.52M108.93,71.13h2.36c.69,0,1.25-.23,1.25-.52v-3.71c0-.29-.56-.52-1.25-.52h-2.36c-.69,0-1.25.23-1.25.52v3.71c0,.29.56.52,1.25.52M148.72,71.13h2.36c.69,0,1.25-.23,1.25-.52v-3.71c0-.29-.56-.52-1.25-.52h-2.36c-.69,0-1.25.23-1.25.52v3.71c0,.29.56.52,1.25.52M142.08,71.13h2.36c.69,0,1.25-.23,1.25-.52v-3.71c0-.29-.56-.52-1.25-.52h-2.36c-.69,0-1.25.23-1.25.52v3.71c0,.29.56.52,1.25.52M161.98,71.13h2.36c.69,0,1.25-.23,1.25-.52v-3.71c0-.29-.56-.52-1.25-.52h-2.36c-.69,0-1.25.23-1.25.52v3.71c0,.29.56.52,1.25.52M155.34,71.13h2.36c.69,0,1.25-.23,1.25-.52v-3.71c0-.29-.56-.52-1.25-.52h-2.36c-.69,0-1.25.23-1.25.52v3.71c0,.29.56.52,1.25.52"/>
      </g>
    </g>
  </g>
  <g class="st86">
    <g class="st51">
      <g class="st52">
        <path class="st89" d="M120.94,64.44v-3.71c0-.29.56-.52,1.25-.52h2.37c.69,0,1.25.24,1.25.52v3.71c0,.29-.56.52-1.25.52h-2.37c-.69,0-1.25-.23-1.25-.52M115.56,64.97h2.36c.69,0,1.25-.23,1.25-.52v-3.71c0-.29-.56-.52-1.25-.52h-2.36c-.69,0-1.25.24-1.25.52v3.71c0,.29.56.52,1.25.52M108.93,64.97h2.36c.69,0,1.25-.23,1.25-.52v-3.71c0-.29-.56-.52-1.25-.52h-2.36c-.69,0-1.25.24-1.25.52v3.71c0,.29.56.52,1.25.52M135.56,64.97h2.36c.69,0,1.25-.23,1.25-.52v-3.71c0-.29-.56-.52-1.25-.52h-2.36c-.69,0-1.25.23-1.25.52v3.71c0,.29.56.52,1.25.52M128.93,64.97h2.36c.69,0,1.25-.23,1.25-.52v-3.71c0-.29-.56-.52-1.25-.52h-2.36c-.69,0-1.25.23-1.25.52v3.71c0,.29.56.52,1.25.52M148.82,64.97h2.36c.69,0,1.25-.23,1.25-.52v-3.71c0-.29-.56-.52-1.25-.52h-2.36c-.69,0-1.25.23-1.25.52v3.71c0,.29.56.52,1.25.52M142.19,64.97h2.36c.69,0,1.25-.23,1.25-.52v-3.71c0-.29-.56-.52-1.25-.52h-2.36c-.69,0-1.25.23-1.25.52v3.71c0,.29.56.52,1.25.52"/>
      </g>
    </g>
  </g>
  <rect class="st90" x="74.63" y="128.24" width="44.66" height="47.84"/>
  <path class="st11" d="M85.62,50.27v2.77c1.14,2.37,6.97,6.94,11.13,6.94,4.57-.08,10.2-4.98,10.69-7.18v-2.37"/>
  <line class="st2" x1="96.02" y1="67.97" x2="96.02" y2="120.34"/>
  <path class="st4" d="M52.59,85.09c2.64-7.51,4.97-16.43,10.55-19.73,6.03-4,10.36-3.43,17.7-5.47,2.4-.73,3.1-2.45,4.81-2.86,0,0,.08-.57,1.06-.73.02-.18,1.96,3.43,5.96,4.73.98,3.43,5.71,4.32,7.01.25,5.06-1.8,6.76-4.99,6.76-4.81.58.9.85.79.9.97.13.15.49-.49,1.87.41,5.06,1.14,14.42,3.96,20.07,9.54,7.18,9.05,11.66,21.37,14.76,28.88,3.92,3.92,5.14,1.06,15.01,7.18,3.75,2.53,7.01,5.79,8.65,9.05.41,2.78.08,5.22-.08,7.83-.49,1.14-.9,1.55-1.96,1.96-4.65-4.24-4.4-.08-20.88-.82,0,.16-.17,1.14-.17,1.3.98,2.45,1.71,4.86.74,6.85-1.63,3.42-3.18,6.36-3.18,9.54.49,4.65.25,2.69.98,11.26,0,5.47-.73,6.85-.9,11.42.65,2.53.65,4.97,1.87,6.93,2.2,1.47,2.94,4.4,2.45,7.34-18.84,5.87-44.05,2.93-50.16-.16-.98,0,0-40.14-.98-40.14-.98,0,0,40.13-.98,40.12-7.1,3.35-27.89,4.09-48.45-.15-.98-6.04.98-5.55,1.96-7.26,3.75-2.77,1.87-7.91,2.77-10.2-1.3-5.22-.17-12.48.41-16.48-1.55-7.09-9.71-13.38-6.03-20.23.24-.73.08-1.14.08-1.8-6.04.08-20.72.24-21.45-4.89,1.96-10.03,12.64-14.76,16.07-16.07,3.26-.73,6.36-.82,7.91-2.37.87-1.52,4.86-11.43,4.86-11.43"/>
  <path class="st1" d="M52.59,85.09c2.64-7.51,4.97-16.43,10.55-19.73,6.03-4,10.36-3.43,17.7-5.47,2.4-.73,3.1-2.45,4.81-2.86,0,0,.08-.57,1.06-.73.02-.18,1.96,3.43,5.96,4.73.98,3.43,5.71,4.32,7.01.25,5.06-1.8,6.76-4.99,6.76-4.81.58.9.85.79.9.97.13.15.49-.49,1.87.41,5.06,1.14,14.42,3.96,20.07,9.54,7.18,9.05,11.66,21.37,14.76,28.88,3.92,3.92,5.14,1.06,15.01,7.18,3.75,2.53,7.01,5.79,8.65,9.05.41,2.78.08,5.22-.08,7.83-.49,1.14-.9,1.55-1.96,1.96-4.65-4.24-4.4-.08-20.88-.82,0,.16-.17,1.14-.17,1.3.98,2.45,1.71,4.86.74,6.85-1.63,3.42-3.18,6.36-3.18,9.54.49,4.65.25,2.69.98,11.26,0,5.47-.73,6.85-.9,11.42.65,2.53.65,4.97,1.87,6.93,2.2,1.47,2.94,4.4,2.45,7.34-18.84,5.87-44.05,2.93-50.16-.16-.98,0,0-40.14-.98-40.14-.98,0,0,40.13-.98,40.12-7.1,3.35-27.89,4.09-48.45-.15-.98-6.04.98-5.55,1.96-7.26,3.75-2.77,1.87-7.91,2.77-10.2-1.3-5.22-.17-12.48.41-16.48-1.55-7.09-9.71-13.38-6.03-20.23.24-.73.08-1.14.08-1.8-6.04.08-20.72.24-21.45-4.89,1.96-10.03,12.64-14.76,16.07-16.07,3.26-.73,6.36-.82,7.91-2.37.87-1.52,4.86-11.43,4.86-11.43Z"/>
  <polygon class="st95" points="95.93 120.34 94.71 119.85 94.71 65.04 95.93 65.04 95.93 120.34"/>
  <path class="st92" d="M45.29,121.32c0-3.91,2.93-9.3,7.58-12.48,6.61-1.96,35.24,5.5,41.85,11.75"/>
  <path class="st92" d="M145.37,121.32c2-4.18-4.21-10.59-10.03-12.6-6.36-2.2-32.79,5.63-39.4,11.87"/>
  <path class="st12" d="M51.61,116.44c-13.3,2.52-8.53-18.16,20.89-9.63v5.16"/>
  <polygon class="st11" points="53.48 112.08 66.18 106.59 66.32 112.82 53.48 112.08"/>
  <path class="st12" d="M139.31,116.44c13.3,2.52,8.53-18.16-20.89-9.63v5.16"/>
  <polygon class="st11" points="137.43 112.08 124.74 106.59 124.6 112.82 137.43 112.08"/>
  <path class="st7" d="M99.61,69.44c0,.68-.55,1.22-1.22,1.22s-1.22-.55-1.22-1.22.55-1.22,1.22-1.22,1.22.55,1.22,1.22"/>
  <path class="st7" d="M99.61,75.8c0,.68-.55,1.22-1.22,1.22s-1.22-.55-1.22-1.22.55-1.22,1.22-1.22,1.22.55,1.22,1.22"/>
  <path class="st7" d="M99.61,82.41c0,.68-.55,1.22-1.22,1.22s-1.22-.55-1.22-1.22.55-1.22,1.22-1.22,1.22.55,1.22,1.22"/>
  <path class="st7" d="M99.61,88.53c0,.68-.55,1.22-1.22,1.22s-1.22-.55-1.22-1.22.55-1.22,1.22-1.22,1.22.55,1.22,1.22"/>
  <path class="st7" d="M99.61,95.63c0,.68-.55,1.22-1.22,1.22s-1.22-.55-1.22-1.22.55-1.22,1.22-1.22,1.22.55,1.22,1.22"/>
  <path class="st7" d="M99.61,102.23c0,.68-.55,1.22-1.22,1.22s-1.22-.55-1.22-1.22.55-1.22,1.22-1.22,1.22.55,1.22,1.22"/>
  <path class="st7" d="M99.61,108.84c0,.68-.55,1.22-1.22,1.22s-1.22-.55-1.22-1.22.55-1.22,1.22-1.22,1.22.55,1.22,1.22"/>
  <path class="st7" d="M99.61,115.45c0,.68-.55,1.22-1.22,1.22s-1.22-.55-1.22-1.22.55-1.22,1.22-1.22,1.22.55,1.22,1.22"/>
  <path class="st91" d="M68.28,116.34c-.81,0-1.48-.64-1.48-1.43l-.98-34.18c0-.8.66-1.44,1.48-1.44h57.76c.81,0,1.48.64,1.48,1.43l-.98,34.21c0,.77-.66,1.42-1.47,1.42h-55.8Z"/>
  <path class="st69" d="M125.06,79.78c.54,0,.98.42.98.94l-.98,34.19c0,.52-.44.94-.98.94h-55.8c-.54,0-.98-.42-.98-.94l-.98-34.19c0-.52.44-.94.98-.94h57.76M125.06,78.8h-57.76c-1.08,0-1.96.86-1.96,1.92l.98,34.22c0,1.03.88,1.89,1.97,1.89h55.8c1.08,0,1.96-.86,1.96-1.92l.98-34.16c0-1.09-.88-1.95-1.97-1.95"/>
  <path class="st13" d="M66.29,119.45c-.86,0-1.51-.46-1.51-1.08v-.23l2.38-1.92h58.01l2.38,1.92v.23c0,.62-.65,1.08-1.51,1.08h-59.77Z"/>
  <path class="st58" d="M125.01,116.71l2.07,1.66c0,.32-.46.59-1.02.59h-59.77c-.56,0-1.02-.26-1.02-.59l2.07-1.66h57.67M125.36,115.73h-58.36l-.27.22-2.07,1.66-.37.29v.47c0,.89.86,1.57,2,1.57h59.77c1.14,0,2-.68,2-1.57v-.47l-.37-.29-2.07-1.66-.27-.22Z"/>
  <path class="st8" d="M101.06,98.63c0,2.69-2.18,4.87-4.87,4.87s-4.87-2.18-4.87-4.87,2.18-4.87,4.87-4.87,4.87,2.18,4.87,4.87"/>
  <path class="st4" d="M45.2,121.56c2.77-5.59,7.67-10.84,10.6-10.51,0,0,22.51.01,40.38,9.54"/>
  <path class="st1" d="M45.2,121.56c2.77-5.59,7.67-10.84,10.6-10.51,0,0,22.51.01,40.38,9.54"/>
  <path class="st4" d="M144.88,121.81c.98-1.71-3.18-7.83-9.54-10.03-6.36-2.2-26.18,2.45-39.4,8.81"/>
  <path class="st1" d="M144.88,121.81c.98-1.71-3.18-7.83-9.54-10.03-6.36-2.2-26.18,2.45-39.4,8.81"/>
  <path class="st92" d="M71.04,159.92c3.82,6.46-10.75,16.5-5.72,17.97s27.26-.67,28.09-2.38c.83-1.71.48-15.59.96-21.38.61-7.31,1.08-14.03,1.08-14.03,0,0,.96,6.01.96,14.03.58,2.95.67,20.39,1.11,21.53.44,1.14,24.97,4.42,29.29,3.25,4.32-1.17-11.16-15.31-6.93-17.42-3.82-11.36,7.36,1.37,8.18-19.35,11.19-14.04-29.19-12.74-32.2-9.62-3-4.01-42.54-3.08-30.54,10.29-3,13.81,10.01,12.02,5.71,17.12"/>
  <path class="st10" d="M80.02,161.88c2.63,5.44-5.25,14.9-4.57,16.15.68,1.25,18.91-.9,19.31-1.84s-.13-13.57.2-18.43c.42-6.15.51-7.96.51-7.96,0,0,.44,1.21.44,7.96.4,2.48.17,17.64.42,18.31.24.66,20.41,4.22,21.15,2.75.73-1.48-8.28-14.22-5.37-15.99-2.63-9.56,3.24,2.22,3.8-15.21,7.7-11.81-17.85-10.66-19.92-8.03-2.07-3.37-26.39-2.43-18.13,8.81-2.35,13.22,5.4,8.8,2.16,13.49"/>
  <g class="st85">
    <g class="st55">
      <g class="st56">
        <path class="st96" d="M129.51,67.55c7.18,9.05,11.66,21.37,14.76,28.88,3.92,3.92,5.14,1.06,15.01,7.18,3.75,2.53,7.01,5.79,8.65,9.05.41,2.77.08,5.22-.08,7.83-.49,1.14-.9,1.55-1.96,1.96-4.65-4.24-4.4-.08-20.88-.82,0,.16-.17,1.14-.17,1.3.98,2.45,1.71,4.86.74,6.85-1.63,3.43-3.18,6.36-3.18,9.54.49,4.65.25,2.69.98,11.26,0,5.46-.73,6.85-.9,11.42.65,2.53.65,4.97,1.88,6.93,2.2,1.47,2.94,4.4,2.45,7.34-18.84,5.87-44.05,2.94-50.16-.16-.98,0,0-55.87-.98-55.87,2.06-3.75,31.91-49.64,33.85-52.7"/>
      </g>
    </g>
  </g>
  <g class="st82">
    <g class="st57">
      <g class="st53">
        <path class="st68" d="M101.2,50.44h6.24v2.37c-.49,2.2-6.12,7.1-10.69,7.18v-8.3"/>
      </g>
    </g>
  </g>
  <path class="st7" d="M96.34,54.03c2.85,0,2.85,1.22,2.85,3.34v4.73s-1.55,5.87-3.18,5.87-2.86-5.79-2.86-5.79v-4.73c0-2.04.33-3.42,3.18-3.42"/>
  <path class="st92" d="M59.96,31.28c5.38-11.75,19.58-20.08,36.71-20.08,14.29,0,29.13,7.27,35.49,20.49.98,14.68-19.79,20.84-35.53,20.84s-37.65-7.06-36.67-21.25"/>
  <g class="st82">
    <g class="st24">
      <g class="st27">
        <path class="st6" d="M77.66,30.68c2.66,3,12.54,5.82,16.44,5.82l-.42,8.26c-7.69,0-19.73-4.84-21.71-8.21l5.69-5.87Z"/>
        <path class="st3" d="M77.66,30.68c2.66,3,12.54,5.82,16.44,5.82l-.42,8.26c-7.69,0-19.73-4.84-21.71-8.21l5.69-5.87Z"/>
      </g>
    </g>
  </g>
  <g class="st82">
    <g class="st25">
      <g class="st26">
        <path class="st96" d="M110.16,13.36c9.37,3.06,17.65,9.31,21.99,18.33.98,14.68-19.79,20.84-35.53,20.84-5.57,0-11.91-.88-17.74-2.66,14.28-16.93,17.85-20.87,31.28-36.51"/>
      </g>
    </g>
  </g>
</svg>