<svg xmlns="http://www.w3.org/2000/svg" viewBox="0 0 500 500" width="500" height="500">
<g transform="translate(0.000000,500.000000) scale(0.100000,-0.100000)" fill="#8fc7c0" stroke="none">
<path d="M2215 4674 c-490 -66 -919 -279 -1270 -629 -337 -336 -546 -752 -621 -1240 -23 -151 -23 -470 0 -620 114 -735 548 -1332 1206 -1659 304 -151 627 -226 970 -226 666 0 1299 303 1713 820 245 305 401 665 463 1065 23 150 23 469 0 620 -85 548 -349 1026 -755 1366 -331 278 -716 447 -1144 504 -144 18 -422 18 -562 -1z m621 -68 c941 -162 1646 -884 1780 -1823 20 -141 23 -406 5 -543 -115 -888 -743 -1597 -1608 -1816 -981 -248 -2017 247 -2448 1170 -337 720 -242 1574 243 2203 347 448 848 738 1412 817 135 19 485 15 616 -8z"/>
<path d="M2432 4418 c-26 -26 -14 -64 29 -92 30 -20 39 -33 37 -49 -4 -31 -35 -33 -65 -5 -22 19 -25 20 -20 5 4 -10 7 -23 7 -28 0 -5 17 -9 38 -9 78 0 95 69 27 106 -35 19 -52 45 -40 64 9 15 41 12 55 -5 15 -19 23 -14 14 9 -7 19 -64 22 -82 4z"/>
<path d="M2589 4421 c21 -14 16 -152 -6 -168 -14 -11 -11 -13 21 -13 31 0 36 3 28 13 -7 8 -9 39 -5 85 5 56 9 72 22 73 20 1 -27 17 -54 18 -15 1 -17 -1 -6 -8z"/>
<path d="M2241 4413 c-20 -3 -30 -8 -23 -12 6 -4 16 -40 22 -81 10 -67 9 -76 -7 -88 -16 -12 -11 -13 32 -7 87 11 95 14 95 37 l0 22 -16 -22 c-11 -16 -24 -22 -42 -20 -23 3 -27 8 -30 41 -3 34 -1 37 22 37 13 0 27 -6 29 -12 3 -7 6 2 6 20 1 30 0 32 -15 18 -8 -9 -24 -16 -35 -16 -17 0 -20 6 -17 37 4 44 28 55 60 26 20 -18 20 -17 17 2 -4 21 -32 26 -98 18z"/>
<path d="M2765 4401 c-63 -27 -81 -110 -33 -157 19 -20 40 -28 77 -32 49 -4 51 -4 51 21 0 14 7 32 15 41 13 13 11 15 -16 21 -17 4 -33 4 -36 1 -4 -3 -1 -6 5 -6 13 0 16 -28 6 -54 -14 -36 -86 0 -98 49 -9 35 18 93 49 105 33 12 73 -3 85 -32 8 -22 9 -22 9 4 1 15 -3 29 -7 32 -18 11 -88 15 -107 7z"/>
<path d="M2007 4368 c-38 -8 -45 -13 -33 -22 21 -16 48 -147 34 -164 -9 -11 -6 -12 18 -6 54 12 112 42 123 62 17 31 13 87 -6 111 -22 26 -71 33 -136 19z m102 -22 c39 -47 25 -130 -24 -142 -15 -4 -30 -3 -35 2 -12 12 -40 135 -34 146 9 13 81 9 93 -6z"/>
<path d="M2968 4363 c6 -2 12 -12 12 -21 0 -30 -36 -134 -49 -142 -14 -8 8 -20 37 -20 14 0 14 2 3 9 -12 8 -12 17 -1 58 22 80 25 79 60 -12 18 -47 36 -88 40 -90 4 -3 18 32 30 76 13 44 30 83 38 88 11 6 7 11 -18 19 -28 10 -31 10 -20 -3 9 -11 8 -27 -5 -72 l-17 -58 -14 30 c-8 17 -25 56 -38 88 -20 46 -29 57 -48 56 -13 0 -17 -3 -10 -6z"/>
<path d="M1760 4285 c-16 -9 -19 -14 -10 -15 13 0 78 -110 66 -110 -3 0 -37 16 -77 35 -76 36 -103 42 -114 25 -3 -5 1 -10 10 -10 23 0 79 -128 64 -146 -14 -17 -1 -17 30 0 20 11 21 14 7 19 -16 6 -61 96 -52 104 2 2 41 -14 86 -37 93 -47 92 -48 39 63 -21 45 -26 64 -17 74 14 17 0 16 -32 -2z"/>
<path d="M3309 4236 c9 -11 5 -28 -21 -80 -17 -36 -39 -67 -47 -69 -11 -2 -6 -9 16 -20 37 -20 52 -22 36 -6 -9 9 -7 20 5 45 18 40 27 42 43 13 9 -17 13 -19 20 -8 12 19 11 42 -1 34 -5 -3 -16 -2 -23 2 -12 7 -12 13 0 41 13 32 14 32 43 17 16 -8 33 -22 38 -31 8 -14 10 -14 15 -1 4 11 -10 24 -53 46 -65 34 -90 40 -71 17z"/>
<path d="M1503 4153 c-30 -6 -73 -59 -73 -89 0 -96 120 -140 177 -65 22 29 16 95 -12 125 -13 14 -28 26 -34 26 -5 0 -15 2 -23 4 -7 2 -23 1 -35 -1z m63 -47 c64 -64 34 -147 -44 -120 -29 10 -72 67 -72 95 0 25 35 59 61 59 12 0 36 -15 55 -34z"/>
<path d="M3461 4114 c-13 -9 -29 -31 -37 -49 -36 -86 61 -163 141 -111 49 32 57 113 16 150 -28 26 -91 31 -120 10z m97 -10 c34 -23 30 -83 -7 -123 -18 -19 -39 -31 -54 -31 -29 0 -57 33 -57 65 0 29 36 84 63 95 30 12 30 12 55 -6z"/>
<path d="M1315 4025 c-22 -18 -25 -25 -13 -25 20 0 110 -110 103 -127 -6 -18 6 -15 33 6 25 22 29 33 8 25 -19 -7 -107 106 -100 129 7 22 5 21 -31 -8z"/>
<path d="M3693 4006 c5 -13 -5 -33 -34 -67 -48 -58 -51 -100 -7 -132 36 -27 66 -17 119 38 25 26 49 43 57 40 21 -8 9 16 -16 33 -20 13 -22 13 -16 -1 6 -16 -54 -90 -88 -108 -23 -12 -54 3 -63 31 -11 34 69 141 94 125 26 -15 8 13 -21 35 -26 19 -30 20 -25 6z"/>
<path d="M1177 3910 l-58 -56 22 -20 c22 -19 22 -19 15 4 -5 14 -3 29 5 38 11 13 20 8 66 -38 29 -29 53 -60 53 -70 0 -17 3 -17 30 4 17 12 30 26 30 31 0 5 -6 5 -13 -1 -10 -9 -27 2 -72 48 -57 57 -58 60 -40 74 11 9 29 13 40 9 20 -6 20 -5 1 16 -11 11 -20 20 -20 19 -1 -1 -27 -27 -59 -58z"/>
<path d="M2427 3930 c-27 -5 -80 -18 -118 -30 l-70 -21 26 -42 c44 -70 76 -148 93 -225 l17 -73 30 6 c17 3 69 8 117 12 l88 5 -6 92 c-8 117 -29 232 -49 262 -17 26 -40 28 -128 14z"/>
<path d="M3884 3833 c6 -17 -3 -30 -44 -65 -27 -23 -59 -45 -71 -48 -20 -5 -20 -6 5 -29 21 -20 24 -21 20 -5 -4 14 8 30 41 57 52 43 51 44 30 -73 -7 -41 -11 -77 -9 -79 1 -2 31 22 66 53 42 38 69 55 82 52 16 -4 15 -2 -5 20 -26 27 -31 30 -23 10 5 -12 -75 -90 -84 -81 -2 1 2 42 9 89 11 80 11 89 -5 104 -17 16 -18 16 -12 -5z"/>
<path d="M1058 3788 c-47 -39 -63 -113 -33 -155 24 -35 77 -48 118 -28 44 20 72 67 57 95 -15 28 -20 25 -14 -9 13 -64 -68 -94 -125 -46 -39 34 -46 57 -26 95 15 28 30 35 64 30 13 -1 13 1 2 14 -16 19 -23 20 -43 4z"/>
<path d="M2724 3754 c-29 -7 -34 -29 -34 -169 0 -171 -7 -160 104 -160 l94 0 5 66 c3 37 19 106 34 153 l29 86 -35 10 c-45 11 -169 20 -197 14z"/>
<path d="M1678 3586 l-66 -72 46 -35 c25 -19 69 -61 97 -95 l52 -61 66 72 66 73 -30 45 c-28 43 -84 95 -139 129 -25 16 -26 15 -92 -56z"/>
<path d="M2173 3640 c-39 -17 -127 -75 -183 -119 l-25 -20 62 -56 c68 -61 148 -162 170 -213 14 -34 16 -34 64 -1 25 18 27 18 41 1 9 -9 23 -30 32 -47 l17 -30 -5 62 -4 63 39 11 c21 7 39 17 39 22 0 17 -78 193 -110 248 -36 61 -68 99 -84 99 -6 0 -30 -9 -53 -20z"/>
<path d="M3060 3628 c0 -33 -37 -159 -76 -254 -19 -47 -34 -87 -34 -88 0 -2 21 -6 48 -10 26 -3 83 -21 128 -40 l80 -33 12 73 c10 65 36 144 85 255 l16 36 -72 18 c-40 10 -96 28 -126 41 -65 29 -61 29 -61 2z"/>
<path d="M4056 3626 c7 -19 -117 -99 -141 -90 -31 12 41 -84 77 -102 64 -33 146 15 135 81 -5 32 -57 124 -69 125 -4 0 -5 -6 -2 -14z m38 -58 c33 -46 10 -98 -50 -118 -32 -11 -39 -10 -63 7 -42 32 -37 48 26 92 32 22 61 40 65 40 4 1 14 -9 22 -21z"/>
<path d="M890 3543 c6 -10 30 -47 55 -82 25 -34 42 -67 39 -72 -10 -16 9 -9 22 9 18 22 17 33 0 26 -24 -9 -41 34 -25 63 10 19 18 23 38 18 14 -4 29 -11 32 -17 4 -6 13 0 23 13 19 28 21 46 3 31 -9 -8 -33 -6 -87 8 -97 25 -114 26 -100 3z m89 -29 c2 -2 -2 -10 -9 -19 -12 -14 -15 -14 -31 1 -27 24 -23 35 9 28 15 -4 29 -8 31 -10z"/>
<path d="M3523 3427 c-26 -27 -48 -71 -79 -153 -19 -50 -21 -64 -10 -64 8 0 40 -14 71 -30 32 -17 59 -29 60 -28 1 2 12 21 23 43 11 23 43 65 71 95 28 30 51 57 51 60 0 9 -93 68 -131 84 -34 14 -37 14 -56 -7z"/>
<path d="M2622 3429 c-12 -5 -51 -13 -86 -20 l-64 -11 19 -56 c11 -32 23 -87 26 -124 3 -40 11 -68 17 -68 6 0 33 7 60 15 27 8 64 15 82 15 32 0 33 1 23 28 -6 15 -21 73 -32 128 -21 98 -23 101 -45 93z"/>
<path d="M792 3383 c-7 -3 -24 -27 -37 -54 -20 -38 -22 -47 -9 -42 22 8 156 -58 150 -74 -10 -24 3 -13 19 17 18 35 19 48 4 33 -9 -9 -19 -8 -42 4 -29 15 -30 16 -12 29 10 8 33 14 50 14 20 0 39 8 51 22 19 21 19 21 -1 14 -10 -4 -38 -10 -62 -13 -38 -5 -43 -3 -43 14 0 35 -31 51 -68 36z m46 -35 c14 -14 16 -45 2 -53 -11 -7 -70 21 -70 33 0 14 23 32 40 32 9 0 21 -5 28 -12z"/>
<path d="M4035 3331 c16 -32 27 -41 23 -18 -2 7 9 13 24 15 22 3 30 -2 40 -22 9 -22 8 -29 -7 -46 -10 -11 -22 -17 -26 -14 -13 8 -10 -7 6 -36 8 -14 14 -19 15 -12 0 8 29 46 65 85 35 39 63 72 62 74 -2 1 -43 -1 -93 -6 -52 -5 -96 -4 -107 1 -17 9 -17 8 -2 -21z m138 -12 c-22 -22 -43 -19 -43 7 0 9 11 14 32 14 l32 0 -21 -21z"/>
<path d="M2030 3275 c-10 -12 -92 -64 -157 -100 -2 -1 17 -22 40 -48 24 -25 58 -75 77 -111 l33 -65 31 23 c17 13 47 31 66 41 19 10 36 19 38 20 2 2 -9 23 -24 46 -15 24 -40 79 -56 124 -16 44 -31 81 -32 83 -2 1 -9 -5 -16 -13z"/>
<path d="M2783 3188 c-10 -88 -32 -178 -57 -239 -6 -13 3 -19 40 -28 l46 -12 -6 -59 c-6 -52 -15 -85 -51 -185 -4 -11 9 2 28 29 36 48 45 70 67 154 l11 42 30 -16 c17 -8 33 -13 35 -11 3 2 12 33 21 68 19 77 76 205 105 236 12 13 19 25 17 28 -3 2 -45 16 -93 30 -48 14 -105 34 -126 45 -22 11 -43 20 -48 20 -4 0 -13 -46 -19 -102z"/>
<path d="M1715 3230 c-49 -22 -119 -47 -155 -56 -36 -10 -67 -19 -69 -20 -2 -2 17 -36 42 -76 53 -84 122 -229 132 -275 l6 -32 32 19 c38 22 160 60 192 60 24 0 24 0 -14 83 -48 104 -72 191 -74 273 -1 35 -2 63 -2 63 0 0 -40 -18 -90 -39z"/>
<path d="M4255 3220 c-3 -5 3 -10 13 -10 11 0 22 -9 25 -20 4 -16 -2 -23 -26 -34 -63 -26 -108 -38 -123 -32 -12 5 -14 1 -8 -17 3 -12 10 -29 15 -37 7 -13 8 -13 9 2 0 15 44 37 128 62 27 9 41 -17 23 -45 -13 -21 -8 -24 19 -9 18 9 18 11 -1 50 -11 22 -22 54 -26 70 -5 30 -34 42 -48 20z"/>
<path d="M681 3154 c-25 -66 -25 -65 -6 -58 23 9 146 -38 154 -58 4 -13 13 1 30 48 22 63 23 66 5 79 -22 15 -33 10 -16 -7 16 -16 15 -40 -2 -63 -12 -16 -17 -17 -45 -6 -36 16 -38 24 -12 50 17 17 17 20 4 25 -23 9 -31 7 -30 -6 1 -44 -3 -50 -30 -43 -16 3 -32 10 -37 15 -14 14 10 60 31 60 15 0 16 2 3 10 -24 15 -26 13 -49 -46z"/>
<path d="M1235 3151 c-28 -25 -63 -56 -79 -67 l-29 -21 82 -78 c44 -43 90 -93 102 -111 l20 -34 24 28 c12 15 48 47 78 72 l56 44 -17 30 c-24 42 -131 155 -162 171 -24 13 -28 11 -75 -34z"/>
<path d="M3301 3129 c-41 -72 -140 -197 -181 -227 l-39 -28 49 -37 49 -36 -35 -66 c-20 -40 -34 -81 -34 -102 0 -34 1 -33 35 34 19 38 43 77 53 87 18 16 21 15 57 -25 l37 -42 92 94 c60 62 101 114 119 152 16 33 27 60 25 61 -2 1 -16 10 -33 21 -16 10 -62 49 -101 87 l-70 68 -23 -41z"/>
<path d="M2385 3109 c-60 -38 -159 -123 -179 -154 -14 -22 -13 -24 38 -58 75 -50 167 -138 211 -202 l38 -54 26 19 c14 11 38 30 53 41 l28 20 9 -23 c18 -47 41 -214 41 -292 -1 -152 -43 -282 -124 -373 l-39 -45 -44 124 c-25 67 -47 130 -50 140 -3 9 7 33 21 54 14 21 26 45 26 52 0 9 7 12 18 9 65 -21 60 -23 92 44 16 35 32 83 36 106 6 36 4 44 -12 48 -11 4 -43 18 -73 31 -30 14 -57 22 -61 17 -3 -4 -12 -33 -20 -63 -7 -30 -23 -76 -36 -102 l-24 -47 30 -6 c17 -4 30 -10 30 -13 0 -4 -13 -22 -29 -41 l-28 -34 -22 36 c-12 20 -44 56 -72 81 l-49 44 26 21 c15 12 29 21 33 21 3 0 12 4 19 9 29 18 -98 217 -178 281 l-39 31 -54 -44 c-29 -24 -79 -58 -110 -76 -31 -18 -57 -33 -57 -35 0 -1 18 -22 41 -46 88 -96 142 -165 162 -209 12 -25 23 -48 24 -50 1 -2 25 15 52 38 l50 42 24 -33 c32 -43 65 -108 89 -178 21 -60 36 -210 22 -210 -5 0 -30 7 -56 17 -36 13 -47 22 -52 43 -3 15 -8 39 -12 54 -5 20 -3 26 11 26 13 0 15 6 10 33 -15 77 -37 137 -48 137 -21 0 -106 -31 -112 -40 -3 -5 6 -25 19 -45 14 -20 30 -51 36 -70 9 -26 16 -34 33 -32 16 2 22 -5 28 -33 4 -19 7 -36 6 -37 -1 0 -39 9 -84 21 -75 19 -84 25 -113 64 -30 41 -101 95 -144 108 -29 9 -36 22 -36 73 0 34 3 42 15 37 11 -4 15 2 15 22 1 15 9 52 20 82 10 30 17 57 14 59 -2 2 -32 4 -66 5 l-63 1 -3 -82 c-3 -78 -2 -83 18 -83 17 0 20 -6 20 -45 0 -25 -4 -45 -10 -45 -33 0 -190 84 -190 102 0 4 17 10 38 14 52 9 52 9 31 51 -24 49 -46 137 -61 240 -7 46 -15 82 -18 80 -41 -24 -149 -69 -200 -82 -36 -10 -67 -20 -69 -21 -2 -2 10 -19 28 -39 17 -20 41 -54 52 -78 27 -51 69 -174 69 -199 0 -23 6 -23 56 3 l40 22 63 -47 c35 -25 98 -64 140 -86 43 -22 94 -58 115 -79 l37 -38 -118 -6 c-65 -3 -119 -4 -121 -2 -2 2 1 19 6 38 l10 36 -51 11 c-87 18 -254 33 -301 26 l-45 -7 -12 -57 c-12 -58 -5 -230 9 -244 4 -4 37 2 72 13 44 15 103 23 185 26 l120 5 -3 54 c-3 43 -1 54 12 54 26 0 220 -39 276 -56 l52 -15 -37 -26 c-34 -23 -38 -24 -55 -8 -14 13 -23 14 -38 6 -23 -12 -122 -119 -122 -131 0 -5 23 -31 52 -58 l51 -49 74 76 c72 75 73 76 53 93 -11 9 -20 19 -20 22 0 12 65 46 88 46 63 0 214 -115 253 -193 28 -55 40 -169 28 -274 -13 -115 -14 -119 -57 -148 l-37 -25 -422 0 c-369 0 -423 -2 -423 -15 0 -13 131 -15 1120 -15 989 0 1120 2 1120 15 0 13 -55 15 -434 15 l-433 0 -26 24 c-34 32 -66 97 -73 150 -5 36 -3 47 14 64 21 21 42 81 42 117 -1 11 -7 37 -14 57 -12 33 -11 41 6 70 44 74 134 149 193 162 30 6 130 -6 141 -17 3 -3 -1 -16 -10 -29 -16 -24 -15 -25 38 -47 30 -12 71 -35 92 -51 l39 -28 33 71 33 71 -23 18 c-29 23 -97 56 -136 67 -27 8 -31 6 -36 -15 -6 -22 -10 -24 -49 -18 -88 14 -87 20 3 49 62 19 115 28 198 32 118 6 120 5 103 -39 -28 -76 -28 -74 57 -81 45 -4 122 -21 187 -41 61 -20 110 -36 111 -36 1 0 4 32 8 72 4 40 14 99 22 132 15 57 15 61 -3 73 -42 31 -221 72 -320 73 -28 0 -33 -4 -33 -24 0 -13 -3 -37 -6 -55 l-6 -31 -150 3 -149 2 6 25 c8 33 50 113 61 117 5 2 20 -15 34 -36 l24 -40 35 28 c61 47 132 85 223 116 l88 31 -47 82 c-53 94 -111 162 -139 162 -30 0 -133 -72 -223 -157 l-84 -78 37 -37 36 -36 -54 -55 c-34 -34 -59 -69 -66 -94 -12 -38 -15 -41 -59 -47 -25 -4 -72 -17 -104 -30 l-59 -24 7 26 c4 15 10 77 14 137 6 95 12 118 38 170 17 33 39 71 50 84 l19 23 26 -30 26 -31 17 27 c9 15 42 50 73 79 32 28 55 53 52 55 -3 2 -29 23 -57 47 l-53 43 -34 -22 c-48 -29 -112 -118 -97 -133 6 -6 11 -14 11 -17 0 -7 -84 -70 -93 -70 -2 0 -7 14 -11 30 -8 45 -56 159 -83 202 -12 21 -23 40 -23 43 0 2 18 14 40 25 22 11 40 23 40 26 0 25 -155 271 -203 322 -38 40 -60 40 -122 1z m270 -1368 c12 -54 -26 -110 -52 -76 -17 25 -17 65 2 92 19 28 42 20 50 -16z"/>
<path d="M3716 3021 c-29 -57 -159 -199 -212 -232 -19 -11 -34 -24 -34 -27 1 -4 24 -25 51 -46 28 -21 67 -60 86 -86 l35 -48 58 58 c47 47 146 119 257 186 16 10 15 13 -17 40 -47 38 -85 77 -147 148 l-51 59 -26 -52z"/>
<path d="M630 3006 c0 -11 -7 -46 -15 -76 -15 -56 -10 -70 25 -70 12 1 12 3 -2 14 -19 14 -24 41 -9 51 18 11 152 -26 159 -43 5 -14 7 -12 13 8 4 14 7 34 8 44 1 18 0 18 -11 3 -12 -15 -18 -15 -83 1 -58 15 -71 22 -73 40 -2 16 3 25 19 31 23 8 23 8 -4 13 -22 4 -27 2 -27 -16z"/>
<path d="M4348 3008 c-3 -7 -38 -21 -78 -32 -61 -15 -74 -16 -82 -5 -7 10 -8 7 -4 -11 3 -14 6 -31 6 -37 0 -7 5 -13 11 -13 5 0 8 4 4 9 -5 9 21 20 103 41 33 9 47 8 58 -1 13 -11 14 -8 8 17 -8 36 -20 50 -26 32z"/>
<path d="M4268 2865 c-46 -26 -62 -80 -36 -128 18 -35 40 -46 86 -47 60 0 92 32 92 93 0 33 -6 49 -24 66 -30 28 -83 36 -118 16z m110 -31 c31 -22 29 -67 -4 -93 -33 -26 -100 -28 -126 -4 -63 57 58 148 130 97z"/>
<path d="M590 2799 c0 -8 -3 -25 -6 -39 -6 -23 -5 -24 8 -7 12 16 21 17 73 10 l60 -8 -77 -53 c-55 -37 -78 -59 -78 -73 0 -18 2 -19 14 -6 17 17 106 12 149 -8 27 -13 27 -13 26 18 0 18 -3 26 -6 20 -5 -14 -71 -17 -111 -6 -21 5 -15 11 53 55 42 26 74 52 71 57 -3 4 -38 11 -78 15 -51 4 -77 11 -85 23 -10 13 -13 14 -13 2z"/>
<path d="M3905 2599 c-97 -45 -242 -89 -297 -89 -28 0 -39 -4 -35 -12 34 -79 77 -194 87 -237 7 -32 17 -50 24 -47 159 68 334 126 382 126 l23 0 -29 63 c-17 34 -39 101 -51 147 -12 47 -22 85 -23 86 0 1 -37 -16 -81 -37z"/>
<path d="M4418 2628 c-6 -15 -20 -18 -81 -18 -43 0 -78 5 -85 12 -9 9 -12 3 -12 -27 0 -34 2 -37 13 -21 8 11 31 19 72 22 l60 5 -68 -63 c-37 -35 -67 -67 -67 -72 0 -5 33 -6 77 -2 63 5 80 3 95 -11 17 -16 18 -15 12 18 -8 39 -14 50 -14 26 0 -14 -11 -17 -62 -17 l-63 1 30 26 c96 83 106 95 103 116 -3 19 -4 20 -10 5z"/>
<path d="M940 2496 c0 -45 -6 -105 -14 -134 l-13 -52 98 0 c84 0 194 -15 265 -35 21 -6 22 -3 26 107 2 62 9 122 16 134 11 21 9 21 -131 27 -78 4 -166 13 -194 21 l-53 14 0 -82z"/>
<path d="M571 2515 c0 -22 3 -34 6 -27 3 8 30 12 83 12 53 0 80 -4 83 -12 3 -7 5 3 5 22 0 19 -2 29 -5 23 -3 -9 -29 -13 -78 -13 -60 0 -76 3 -84 18 -8 13 -10 9 -10 -23z"/>
<path d="M656 2321 c-6 -9 26 -211 45 -286 39 -155 113 -333 194 -470 100 -169 195 -284 195 -235 0 6 -31 55 -70 108 -157 219 -266 482 -314 759 -20 115 -34 150 -50 124z"/>
<path d="M4315 2318 c-2 -7 -9 -47 -15 -88 -38 -271 -158 -566 -320 -792 -39 -53 -70 -102 -70 -108 0 -26 33 -5 72 48 153 206 264 441 320 672 25 104 49 260 42 272 -8 12 -24 10 -29 -4z"/>
<path d="M1850 1061 c0 -5 10 -11 23 -13 22 -3 22 -5 22 -158 0 -153 0 -155 -22 -158 -13 -2 -23 -8 -23 -13 0 -5 36 -9 80 -9 44 0 80 4 80 9 0 5 -10 11 -22 13 -23 3 -23 5 -23 158 0 153 0 155 23 158 12 2 22 8 22 13 0 5 -36 9 -80 9 -44 0 -80 -4 -80 -9z"/>
<path d="M2440 1060 c0 -5 9 -10 20 -10 27 0 31 -24 28 -180 -3 -131 -4 -135 -25 -138 -13 -2 -23 -8 -23 -13 0 -5 46 -9 103 -9 111 0 162 16 204 61 74 81 50 225 -47 276 -37 20 -58 23 -152 23 -65 0 -108 -4 -108 -10z m217 -30 c45 -27 66 -73 66 -145 0 -71 -21 -118 -63 -140 -42 -22 -97 -20 -110 4 -5 11 -10 83 -10 160 l0 141 43 0 c24 0 56 -8 74 -20z"/>
<path d="M2865 1060 c3 -5 13 -10 20 -10 27 0 35 -39 35 -164 0 -137 -4 -156 -30 -156 -11 0 -22 -4 -25 -10 -4 -6 23 -10 74 -10 45 0 81 4 81 9 0 5 -10 11 -22 13 -22 3 -23 8 -23 78 l0 75 30 -3 c17 -2 35 -10 41 -18 21 -27 34 -15 34 31 0 32 -4 45 -14 45 -8 0 -16 -7 -20 -15 -3 -9 -19 -15 -41 -15 l-35 0 0 70 0 70 69 0 c49 0 72 -4 81 -15 18 -22 30 -18 30 10 l0 25 -146 0 c-94 0 -143 -4 -139 -10z"/>
<path d="M2090 950 c0 -5 6 -10 13 -10 8 0 31 -25 52 -55 l37 -55 -37 -46 c-21 -25 -44 -48 -51 -51 -29 -11 -12 -23 34 -23 43 1 45 2 28 15 -18 14 -18 15 8 50 30 39 39 38 69 -14 16 -27 16 -31 3 -31 -9 0 -16 -4 -16 -10 0 -6 27 -10 63 -10 l62 1 -27 19 c-14 11 -41 43 -58 70 l-32 50 37 45 c20 25 43 45 51 45 8 0 14 5 14 10 0 6 -20 10 -45 10 -25 0 -45 -4 -45 -10 0 -5 5 -10 10 -10 16 0 12 -13 -13 -44 l-24 -29 -23 33 c-16 23 -20 35 -12 38 30 10 7 22 -43 22 -30 0 -55 -4 -55 -10z"/>
</g>
</svg>
