<?xml version="1.0" encoding="UTF-8"?>
<svg id="Layer_2" xmlns="http://www.w3.org/2000/svg" xmlns:xlink="http://www.w3.org/1999/xlink" version="1.1" viewBox="0 0 202.25 190.85">
  <!-- Generator: Adobe Illustrator 30.3.0, SVG Export Plug-In . SVG Version: 2.1.3 Build 182)  -->
  <defs>
    <style>
      .st0, .st1 {
        fill: none;
      }

      .st2 {
        fill: #2874ba;
      }

      .st3 {
        clip-path: url(#clippath-1);
      }

      .st4 {
        fill: #e4e5e6;
      }

      .st5 {
        fill: #fff;
      }

      .st6 {
        font-size: 12.5px;
      }

      .st6, .st7, .st8, .st9, .st10, .st11, .st12, .st13, .st14, .st15, .st16, .st17, .st18, .st19, .st20, .st21, .st22, .st23, .st24, .st25, .st26, .st27, .st28 {
        fill: #141414;
        font-family: Nexa-ExtraLight, Nexa;
        font-weight: 200;
      }

      .st7 {
        font-size: 12.5px;
      }

      .st8 {
        font-size: 12.5px;
      }

      .st9 {
        font-size: 12.5px;
      }

      .st10 {
        font-size: 12.5px;
      }

      .st11 {
        font-size: 12.5px;
      }

      .st12 {
        font-size: 12.5px;
      }

      .st13 {
        font-size: 12.5px;
      }

      .st14 {
        font-size: 12.5px;
      }

      .st15 {
        font-size: 12.5px;
      }

      .st16 {
        font-size: 12.5px;
      }

      .st17 {
        font-size: 12.5px;
      }

      .st18 {
        font-size: 12.5px;
      }

      .st19 {
        font-size: 12.5px;
      }

      .st20 {
        font-size: 12.5px;
      }

      .st21 {
        font-size: 12.5px;
      }

      .st22 {
        font-size: 12.5px;
      }

      .st23 {
        font-size: 12.5px;
      }

      .st24 {
        font-size: 12.5px;
      }

      .st25 {
        font-size: 12.5px;
      }

      .st26 {
        font-size: 12.5px;
      }

      .st27 {
        font-size: 12.5px;
      }

      .st28 {
        font-size: 12.5px;
      }

      .st29 {
        fill: #2fa8e0;
      }

      .st30 {
        fill: #1f55a1;
      }

      .st1 {
        stroke: #e4e5e6;
        stroke-miterlimit: 10;
        stroke-width: 1.15px;
      }

      .st31 {
        clip-path: url(#clippath);
      }
    </style>
    <clipPath id="clippath">
      <rect class="st0" x="9.88" y="2.75" width="182.5" height="178.65"/>
    </clipPath>
    <clipPath id="clippath-1">
      <rect class="st0" x="9.88" y="2.75" width="182.5" height="178.65"/>
    </clipPath>
  </defs>
  <g class="st31">
    <path class="st29" d="M106.71,100.38l-76.22-12.07c2.67-16.84,9.6-30.44,21.65-42.5l54.57,54.57Z"/>
    <path class="st1" d="M106.71,100.38l-76.22-12.07c2.67-16.84,9.6-30.44,21.65-42.5l54.57,54.57Z"/>
    <path class="st2" d="M106.71,100.38l12.07,76.22c-42.1,6.67-81.63-22.05-88.3-64.15-1.33-8.42-1.33-15.73,0-24.15l76.22,12.07Z"/>
    <path class="st1" d="M106.71,100.38l12.07,76.22c-42.1,6.67-81.63-22.05-88.3-64.15-1.33-8.42-1.33-15.73,0-24.15l76.22,12.07Z"/>
    <path class="st29" d="M106.71,100.38l76.22,12.07c-5.33,33.68-30.47,58.82-64.15,64.15l-12.07-76.22Z"/>
    <path class="st1" d="M106.71,100.38l76.22,12.07c-5.33,33.68-30.47,58.82-64.15,64.15l-12.07-76.22Z"/>
    <path class="st30" d="M106.71,100.38l-54.57-54.57c30.14-30.14,79-30.14,109.14,0,18.08,18.08,25.65,41.38,21.65,66.64l-76.22-12.07Z"/>
    <path class="st1" d="M106.71,100.38l-54.57-54.57c30.14-30.14,79-30.14,109.14,0,18.08,18.08,25.65,41.38,21.65,66.64l-76.22-12.07Z"/>
    <path class="st5" d="M105.77,148.63c-26.37,0-47.82-21.45-47.82-47.82s21.45-47.82,47.82-47.82,47.82,21.45,47.82,47.82-21.45,47.82-47.82,47.82"/>
    <path class="st4" d="M105.77,54.7c12.32,0,23.9,4.8,32.61,13.5,8.71,8.71,13.51,20.29,13.51,32.61s-4.8,23.9-13.51,32.61c-8.71,8.71-20.29,13.51-32.61,13.51s-23.9-4.8-32.61-13.51c-8.71-8.71-13.5-20.29-13.5-32.61s4.8-23.9,13.5-32.61c8.71-8.71,20.29-13.5,32.61-13.5M105.77,51.28c-27.35,0-49.53,22.17-49.53,49.53s22.17,49.53,49.53,49.53,49.53-22.18,49.53-49.53-22.17-49.53-49.53-49.53"/>
  </g>
  <text class="st10" transform="translate(111.57 16.97) rotate(6.71)"><tspan x="0" y="0">P</tspan></text>
  <text class="st15" transform="translate(119.33 17.79) rotate(12.22)"><tspan x="0" y="0">A</tspan></text>
  <text class="st19" transform="translate(127.28 19.5) rotate(17.63)"><tspan x="0" y="0">S</tspan></text>
  <text class="st13" transform="translate(134.54 21.7) rotate(22.77)"><tspan x="0" y="0">S</tspan></text>
  <text class="st18" transform="translate(141.54 24.77) rotate(26.16)"><tspan x="0" y="0">I</tspan></text>
  <text class="st28" transform="translate(143.99 25.77) rotate(30.46)"><tspan x="0" y="0">O</tspan></text>
  <text class="st25" transform="translate(152.18 30.64) rotate(36.41)"><tspan x="0" y="0">N</tspan></text>
  <text class="st26" transform="translate(158.92 35.65) rotate(42.1)"><tspan x="0" y="0">A</tspan></text>
  <text class="st12" transform="translate(164.27 40.31) rotate(46.56)"><tspan x="0" y="0">T</tspan></text>
  <text class="st27" transform="translate(169.13 45.58) rotate(51.56)"><tspan x="0" y="0">E</tspan></text>
  <text class="st6" transform="translate(159.04 177.01) rotate(-37.62)"><tspan x="0" y="0">B</tspan></text>
  <text class="st14" transform="translate(166.12 171.44) rotate(-43.65)"><tspan x="0" y="0">O</tspan></text>
  <text class="st24" transform="translate(173.59 164.2) rotate(-49.05)"><tspan x="0" y="0">L</tspan></text>
  <text class="st11" transform="translate(178.42 158.72) rotate(-54.13)"><tspan x="0" y="0">D</tspan></text>
  <text class="st23" transform="translate(24.04 80.71) rotate(-73.6)"><tspan x="0" y="0">F</tspan></text>
  <text class="st7" transform="translate(26.06 74) rotate(-68.43)"><tspan x="0" y="0">U</tspan></text>
  <text class="st8" transform="translate(29.11 66.44) rotate(-63.05)"><tspan x="0" y="0">N</tspan></text>
  <text class="st9" transform="translate(32.83 59.06) rotate(-57.24)"><tspan x="0" y="0">N</tspan></text>
  <text class="st22" transform="translate(37.43 51.91) rotate(-51.8)"><tspan x="0" y="0">Y</tspan></text>
  <text class="st20" transform="translate(24.85 146.26) rotate(58.13)"><tspan x="0" y="0">S</tspan></text>
  <text class="st21" transform="translate(29.22 153.35) rotate(52.31)"><tspan x="0" y="0">O</tspan></text>
  <text class="st17" transform="translate(35.77 161.81) rotate(45.66)"><tspan x="0" y="0">C</tspan></text>
  <text class="st15" transform="translate(42.05 168.26) rotate(42.62)"><tspan x="0" y="0">I</tspan></text>
  <text class="st16" transform="translate(44.09 170.27) rotate(38.99)"><tspan x="0" y="0">A</tspan></text>
  <g class="st3">
    <text class="st12" transform="translate(51.52 176.05) rotate(33.75)"><tspan x="0" y="0">L</tspan></text>
  </g>

</svg>
